<?xml version="1.0" standalone="no"?>
<!DOCTYPE svg PUBLIC "-//W3C//DTD SVG 20010904//EN"
 "http://www.w3.org/TR/2001/REC-SVG-20010904/DTD/svg10.dtd">
<svg version="1.0" xmlns="http://www.w3.org/2000/svg"
 width="604.000000pt" height="604.000000pt" viewBox="0 0 604.000000 604.000000"
 preserveAspectRatio="xMidYMid meet">

<g transform="translate(0.000000,604.000000) scale(0.100000,-0.100000)"
fill="" stroke="">
<path d="M2770 6029 c-624 -55 -1193 -288 -1675 -684 -127 -104 -349 -331
-444 -455 -120 -154 -247 -355 -326 -513 l-73 -149 38 -38 c22 -22 42 -51 46
-65 10 -40 -2 -101 -25 -131 -15 -20 -21 -41 -21 -81 0 -50 -1 -53 -19 -43
-11 5 -22 10 -25 10 -22 0 17 -83 64 -135 53 -58 124 -185 104 -185 -3 0 -30
25 -59 55 -58 60 -96 71 -134 39 -30 -26 -83 -41 -119 -33 -18 4 -34 3 -37 -1
-9 -15 -45 -253 -55 -365 -11 -136 -13 -291 -4 -358 5 -33 12 -47 25 -50 27
-7 26 -69 0 -88 -19 -13 -19 -18 -5 -124 29 -225 88 -461 171 -685 74 -202
237 -508 352 -663 l42 -57 28 21 c60 44 141 1 123 -66 -5 -19 -19 -36 -39 -46
l-32 -16 68 -79 c93 -108 297 -305 402 -386 79 -62 89 -67 123 -61 30 5 41 1
61 -17 16 -15 24 -33 23 -48 -3 -22 10 -33 92 -84 171 -107 531 -273 638 -294
24 -5 30 -1 42 28 13 28 21 33 52 36 30 3 40 -1 53 -22 9 -14 15 -39 13 -57
-3 -28 1 -33 25 -40 18 -5 27 -3 27 4 0 8 3 8 9 -1 10 -17 86 -36 239 -61 634
-104 1291 1 1866 297 109 56 131 71 142 99 18 41 18 39 -8 63 -12 11 -16 20
-10 20 24 0 11 44 -25 89 -26 33 -29 39 -10 22 15 -14 29 -22 32 -19 3 3 -13
56 -35 117 -22 62 -40 115 -40 119 0 22 26 -31 68 -138 54 -136 71 -155 149
-162 l38 -4 -32 -13 c-30 -12 -70 -57 -60 -68 7 -6 103 58 247 166 133 99 357
314 472 451 99 117 223 300 205 300 -18 0 -57 42 -57 63 0 34 61 43 98 14 17
-14 21 -9 86 109 125 223 239 521 296 773 30 134 67 368 59 375 -2 2 -35 6
-72 9 l-69 5 -61 -55 c-34 -30 -70 -67 -79 -82 -9 -14 -40 -39 -67 -56 -46
-26 -51 -33 -51 -64 0 -27 3 -32 12 -23 23 23 109 9 114 -19 2 -8 6 -24 10
-36 7 -27 -19 -36 -87 -31 -42 3 -44 5 -50 38 -4 23 -7 27 -8 12 0 -13 -8 -60
-16 -105 -13 -70 -44 -266 -86 -542 -6 -38 -14 -88 -19 -110 -5 -22 -12 -71
-16 -108 -5 -47 -12 -70 -23 -76 -9 -5 -59 -11 -111 -15 -52 -3 -128 -9 -169
-13 l-73 -6 7 24 c12 36 8 130 -9 222 -8 45 -18 107 -21 137 -8 61 -19 82 -41
73 -8 -3 -22 5 -32 17 -23 29 -66 19 -81 -18 -6 -15 -28 -36 -48 -47 -42 -23
-51 -44 -52 -131 -1 -46 -6 -65 -20 -78 -11 -10 -31 -56 -46 -102 -15 -47 -38
-98 -51 -114 -28 -33 -62 -40 -329 -65 -174 -16 -351 -35 -577 -61 -159 -18
-218 -18 -218 -1 0 6 20 109 45 227 24 118 70 339 100 490 74 364 144 703 158
765 l12 50 190 12 c1239 75 1308 80 1300 94 -4 5 1 9 9 9 9 0 16 -5 16 -10 0
-13 142 -1 151 13 4 5 26 6 50 3 30 -4 37 -3 24 3 -16 7 -11 10 25 12 34 3 47
9 54 25 17 38 42 46 83 29 41 -17 111 -27 117 -17 11 18 -27 90 -70 133 -39
40 -47 55 -51 93 -3 44 -2 46 23 46 15 0 43 -14 67 -35 24 -21 51 -35 67 -35
14 0 35 -7 46 -15 10 -8 22 -15 27 -15 17 0 -4 235 -39 421 -19 104 -64 281
-74 292 -4 5 -48 -39 -97 -96 -68 -80 -93 -116 -102 -151 -8 -33 -18 -49 -39
-59 -52 -27 -165 -29 -123 -3 5 3 14 26 20 51 12 48 54 85 96 85 12 0 53 33
100 80 63 63 77 83 66 90 -12 7 -9 10 11 15 44 11 51 52 24 132 -201 588 -631
1141 -1166 1501 -561 376 -1266 559 -1930 501z m232 -1016 c291 -58 332 -59
538 -11 85 20 171 39 191 42 70 12 81 -26 100 -325 21 -344 -7 -646 -72 -777
-76 -155 -369 -362 -512 -362 -106 0 -300 83 -440 188 -39 30 -82 62 -95 70
l-23 15 18 -37 c15 -32 15 -38 3 -46 -24 -16 -66 -11 -83 8 -23 25 -31 75 -17
101 11 21 13 21 36 6 29 -19 30 -12 6 23 -28 40 -42 89 -42 143 0 51 -8 59
-34 33 -10 -10 -16 -11 -16 -4 0 7 -19 29 -42 49 l-41 37 19 47 c17 41 23 46
54 49 33 3 35 5 34 38 -1 19 -9 61 -18 93 l-17 57 41 101 c45 112 59 192 60
341 0 104 10 140 44 156 35 17 66 14 308 -35z m928 -199 c0 -19 3 -34 8 -34 4
0 27 -18 52 -40 25 -22 42 -40 38 -40 -4 0 -28 18 -53 40 -33 28 -53 39 -66
35 -17 -6 -19 -1 -19 38 0 24 3 47 7 50 13 13 33 -16 33 -49z m205 -203 c-3
-3 -18 8 -33 23 l-27 29 32 -23 c18 -13 30 -26 28 -29z m-226 -213 c-1 -72 -4
-104 -9 -88 -14 43 -9 200 6 200 2 0 4 -51 3 -112z m-1486 53 c29 -27 46 -53
54 -83 l11 -43 -26 35 c-50 65 -89 100 -106 94 -10 -4 -16 -1 -16 8 0 41 31
36 83 -11z m-810 -38 c25 -23 21 -58 -9 -82 -32 -25 -71 -27 -96 -4 -18 16
-24 59 -10 79 24 35 79 39 115 7z m2929 -63 c25 -31 22 -67 -7 -95 -70 -71
-163 34 -101 114 15 20 87 7 108 -19z m-2449 -25 c20 -14 37 -31 37 -38 0 -14
66 -37 107 -37 31 -1 70 -25 54 -34 -5 -3 -20 -2 -33 3 -44 16 -145 22 -191
11 -37 -10 -50 -9 -75 4 -59 30 -67 75 -19 99 46 23 77 21 120 -8z m400 -233
c35 -30 7 -23 -46 12 -79 52 -107 88 -32 41 33 -21 68 -45 78 -53z m1492 -196
c25 -40 23 -69 -8 -84 -36 -17 -72 -9 -93 23 -14 22 -14 26 2 54 26 45 73 48
99 7z m-3314 -269 c76 -51 38 -150 -62 -163 -39 -5 -48 -11 -53 -30 -8 -32
-45 -64 -73 -64 -32 0 -59 30 -67 76 -7 33 -4 41 14 56 12 10 37 18 56 18 33
0 34 1 34 42 0 82 76 115 151 65z m2173 -41 c157 -123 284 -176 423 -176 66 0
80 4 156 43 l85 44 41 -25 c22 -13 41 -29 41 -36 0 -23 -59 -113 -94 -144
-102 -89 -263 -121 -439 -88 -154 30 -268 107 -363 247 l-48 70 46 39 c25 22
49 51 52 65 4 14 9 25 12 25 3 0 43 -29 88 -64z m1637 -29 c19 -12 40 -36 48
-53 13 -30 59 -56 140 -79 15 -5 20 -10 13 -17 -6 -6 -30 -1 -68 12 -62 23
-71 24 -147 14 -42 -5 -52 -3 -73 17 -31 29 -32 75 -2 106 27 29 46 29 89 0z
m983 -103 c11 -8 26 -37 33 -65 9 -36 28 -68 65 -110 52 -60 57 -80 16 -63
-25 11 -73 10 -99 0 -41 -17 -189 95 -189 143 0 92 100 147 174 95z m-576 -31
c20 -9 55 -21 76 -27 53 -15 56 -32 7 -41 -21 -3 -47 -15 -55 -24 -9 -10 -35
-26 -56 -36 -54 -25 -84 -11 -111 52 -24 56 -20 69 23 82 49 14 75 13 116 -6z
m156 8 c8 -12 -20 -22 -40 -14 -13 5 -13 7 -2 14 17 11 35 11 42 0z m31 -81
c3 -5 1 -10 -4 -10 -6 0 -11 5 -11 10 0 6 2 10 4 10 3 0 8 -4 11 -10z m72 -6
c-3 -3 -12 -4 -19 -1 -8 3 -5 6 6 6 11 1 17 -2 13 -5z m-3904 -836 c30 -22 31
-26 17 -62 -8 -22 -15 -26 -52 -26 -52 0 -64 7 -77 43 -9 24 -8 31 14 53 28
28 49 26 98 -8z m2345 -566 c60 -54 73 -72 70 -92 -3 -24 -4 -24 -53 22 -83
77 -97 78 -290 32 -122 -30 -145 -39 -145 -59 0 -22 29 -19 155 15 61 17 130
30 155 30 42 0 50 -4 103 -58 52 -52 69 -87 51 -105 -4 -4 -24 9 -45 28 -51
46 -71 49 -200 38 -110 -10 -144 -22 -122 -44 8 -8 41 -8 123 0 126 12 140 8
199 -53 32 -33 34 -37 22 -63 l-13 -28 -22 30 c-11 16 -35 44 -52 62 -30 31
-36 33 -99 33 -89 0 -157 -17 -153 -39 2 -10 12 -15 28 -14 180 17 175 18 199
-13 12 -16 38 -56 57 -88 58 -100 29 -108 -69 -20 -69 62 -187 94 -187 50 0
-25 -174 -60 -267 -54 -74 5 -79 4 -123 -26 -70 -49 -475 -296 -485 -296 -1 0
-49 -26 -106 -58 -228 -127 -417 -215 -559 -260 -150 -48 -202 -56 -349 -57
l-145 0 -13 50 c-7 28 -15 96 -19 151 l-7 102 102 80 c55 45 122 93 148 108
27 15 87 51 134 81 94 59 156 85 264 113 39 10 205 52 370 95 165 42 361 92
435 110 254 62 288 73 420 130 155 67 344 134 380 134 29 0 47 -10 108 -67z
m1396 -119 c3 -38 10 -98 16 -136 18 -121 13 -215 -16 -282 -36 -84 -40 -105
-20 -105 18 0 58 79 77 154 12 48 10 111 -10 301 -6 50 -6 94 -1 98 9 10 12
-1 40 -189 l22 -141 -22 -79 c-53 -195 -47 -187 -188 -223 -84 -22 -391 -41
-428 -27 -15 6 -13 12 21 46 33 34 167 110 194 110 24 0 82 87 107 162 28 85
56 127 63 93 5 -28 -40 -205 -62 -243 -11 -18 -39 -46 -63 -63 -42 -29 -58
-59 -31 -59 29 0 111 70 134 114 21 40 51 153 59 221 6 49 4 59 -16 80 -19 21
-21 30 -15 77 8 61 20 88 39 88 16 0 26 -102 26 -262 0 -121 -9 -151 -65 -229
-36 -51 -41 -64 -26 -73 15 -9 70 55 101 118 29 57 30 64 29 195 0 75 -4 170
-8 211 -8 77 -1 110 24 110 9 0 15 -19 19 -67z m-1565 -257 c15 -8 48 -31 72
-52 24 -20 56 -41 72 -46 15 -6 27 -15 27 -21 0 -26 -21 -87 -30 -87 -5 0 -62
18 -127 41 -65 22 -160 55 -210 72 -51 17 -93 34 -93 38 0 4 30 14 68 23 37 9
87 22 112 30 58 19 75 19 109 2z m-129 -137 c113 -39 220 -76 238 -82 24 -8
32 -16 32 -34 0 -13 -6 -23 -13 -23 -6 0 -104 36 -217 81 -113 44 -220 86
-239 93 -38 14 -53 36 -24 36 10 0 110 -32 223 -71z m1290 -76 c-1 -9 -132
-95 -136 -90 -2 2 -5 18 -6 37 -3 32 -1 35 35 41 20 3 40 9 44 12 9 10 63 9
63 0z m-150 -113 c0 -5 -9 -10 -21 -10 -11 0 -17 5 -14 10 3 6 13 10 21 10 8
0 14 -4 14 -10z m-120 -24 c0 -16 -27 -29 -41 -20 -19 11 -9 34 16 34 15 0 25
-6 25 -14z m79 -461 c17 -19 28 -35 23 -35 -4 0 -23 16 -42 35 -19 19 -29 35
-24 35 6 0 25 -16 43 -35z m101 -255 c0 -5 -7 -10 -16 -10 -8 0 -12 5 -9 10 3
6 10 10 16 10 5 0 9 -4 9 -10z m-60 -20 c-36 -12 -60 -12 -60 0 0 6 19 10 43
9 36 -1 38 -2 17 -9z m-1940 -160 c14 -27 -15 -56 -55 -55 -25 1 -31 6 -33 30
-4 32 11 45 50 45 17 0 31 -7 38 -20z m1516 -5 c-20 -15 -51 -12 -70 6 -6 5
10 9 40 9 45 -1 48 -2 30 -15z"/>
<path d="M2919 4726 c-90 -24 -205 -114 -197 -154 5 -27 23 -24 79 14 71 50
127 65 229 63 97 -1 116 4 126 34 5 15 0 26 -16 39 -27 22 -147 24 -221 4z"/>
<path d="M3443 4728 c-14 -6 -23 -20 -23 -33 0 -40 24 -49 133 -48 73 1 89 -1
57 -6 -76 -12 -118 -44 -160 -123 -41 -77 -12 -94 38 -22 53 74 152 106 203
65 19 -15 24 -29 24 -63 0 -24 5 -45 10 -48 6 -3 25 24 42 59 18 35 38 70 44
78 19 22 -37 83 -106 118 -50 25 -72 30 -149 32 -54 2 -100 -2 -113 -9z"/>
<path d="M2914 4611 c-48 -8 -148 -63 -152 -83 -4 -18 69 -118 86 -118 15 0
16 29 2 66 -14 35 8 60 63 75 61 16 131 -3 200 -56 31 -25 62 -45 68 -45 15 0
1 39 -30 79 -53 70 -139 100 -237 82z"/>
<path d="M3554 4503 c-21 -22 -25 -35 -21 -64 4 -32 2 -37 -25 -47 -19 -7 -27
-15 -23 -23 10 -15 158 -7 197 11 32 15 44 38 23 46 -8 4 -15 17 -15 31 0 13
-11 35 -25 48 -33 34 -78 33 -111 -2z"/>
<path d="M2977 4498 c-23 -18 -36 -59 -30 -92 6 -27 4 -29 -23 -22 -50 12 -57
11 -61 -2 -9 -25 60 -42 149 -36 100 6 128 11 128 24 0 5 -9 12 -20 15 -15 5
-20 15 -20 39 0 47 -33 86 -74 86 -18 0 -40 -6 -49 -12z"/>
<path d="M3310 4266 c0 -47 15 -82 50 -123 24 -27 28 -38 20 -53 -5 -10 -19
-22 -30 -25 -11 -3 -20 -15 -20 -26 0 -28 45 -25 75 6 36 35 33 80 -6 121 -19
20 -37 52 -44 81 -15 60 -45 73 -45 19z"/>
<path d="M3045 3920 c-10 -17 13 -47 51 -65 29 -14 55 -16 127 -13 85 4 105
12 95 35 -2 5 -46 8 -100 8 -84 0 -100 3 -127 23 -34 25 -37 26 -46 12z"/>
<path d="M5690 2908 c0 -31 3 -39 10 -28 13 20 13 57 0 65 -6 4 -10 -11 -10
-37z"/>
<path d="M5637 2570 c-3 -11 -1 -23 4 -26 5 -3 9 6 9 20 0 31 -6 34 -13 6z"/>
</g>
</svg>
