<?xml version="1.0" standalone="no"?>
<!DOCTYPE svg PUBLIC "-//W3C//DTD SVG 20010904//EN"
 "http://www.w3.org/TR/2001/REC-SVG-20010904/DTD/svg10.dtd">
<svg version="1.0" xmlns="http://www.w3.org/2000/svg"
 width="448.000000pt" height="472.000000pt" viewBox="0 0 448.000000 472.000000"
 preserveAspectRatio="xMidYMid meet">

<g transform="translate(0.000000,472.000000) scale(0.100000,-0.100000)"
fill="#9bdedb" stroke="none">
<path d="M1987 4454 c-1 -1 -29 -5 -62 -8 -92 -8 -134 -17 -146 -32 -6 -8 -20
-14 -30 -14 -19 0 -92 -39 -97 -52 -2 -4 -9 -8 -15 -8 -12 0 -21 -8 -97 -85
-85 -85 -102 -107 -97 -126 3 -13 -2 -23 -15 -30 -16 -9 -19 -18 -16 -47 3
-23 -1 -46 -10 -60 -11 -17 -12 -28 -4 -46 7 -16 7 -27 1 -33 -7 -7 -5 -23 5
-48 9 -21 16 -67 16 -104 0 -36 7 -111 15 -166 8 -55 15 -137 15 -183 0 -100
13 -135 70 -185 39 -36 131 -87 157 -87 6 0 16 -14 22 -31 6 -17 33 -57 61
-89 27 -32 50 -64 50 -72 0 -8 -7 -37 -15 -65 -14 -46 -20 -53 -68 -76 -71
-36 -239 -109 -377 -167 -63 -26 -163 -68 -222 -94 -59 -25 -110 -46 -112 -46
-2 0 -42 -18 -88 -39 -89 -42 -134 -82 -163 -145 -18 -41 -119 -434 -135 -526
-5 -30 -18 -109 -30 -175 -41 -236 -69 -440 -61 -448 5 -5 25 -4 44 1 20 6 38
7 41 4 3 -3 6 -58 6 -123 0 -189 23 -265 90 -299 67 -34 179 -22 409 46 l23 7
-7 -74 c-4 -41 -13 -119 -21 -174 -7 -55 -14 -104 -14 -108 0 -4 396 -7 880
-7 l879 1 -6 107 -6 108 92 58 c51 32 131 89 179 127 60 48 135 94 242 147
161 80 193 105 268 205 l43 57 57 1 c31 0 75 4 97 9 30 7 20 8 -45 4 -47 -2
-101 -7 -121 -10 l-36 -6 5 50 c2 27 -3 94 -12 148 -26 152 -25 147 -46 141
-11 -3 -21 1 -24 9 -9 22 -57 17 -63 -6 -3 -12 -19 -28 -35 -36 -34 -18 -48
-49 -48 -108 0 -27 -6 -48 -15 -56 -8 -7 -22 -36 -31 -66 -19 -65 -46 -101
-82 -108 -15 -3 -189 -21 -387 -41 -198 -19 -377 -37 -397 -40 -30 -4 -38 -2
-38 11 0 9 20 109 45 222 25 114 72 333 105 487 34 154 68 310 76 346 l15 66
102 7 c56 3 176 11 267 16 91 5 323 19 515 30 193 11 364 22 380 24 86 11
-377 -7 -752 -30 l-112 -7 -22 47 c-16 34 -37 57 -78 85 -69 47 -255 157 -336
200 -128 67 -277 158 -287 175 -15 27 -4 43 69 89 129 83 191 176 218 324 8
43 21 195 30 338 8 143 18 282 21 308 3 30 0 54 -7 63 -6 7 -9 20 -6 28 3 8
-1 22 -8 33 -8 10 -15 28 -15 40 0 12 -4 25 -10 28 -5 3 -10 16 -10 29 0 13
-9 31 -20 41 -11 10 -20 25 -20 34 0 8 -9 24 -20 36 -11 11 -36 39 -57 63 -20
23 -43 42 -50 42 -6 0 -18 8 -25 18 -12 18 -42 37 -98 63 -14 6 -33 15 -42 20
-10 5 -28 9 -41 9 -13 0 -28 5 -33 10 -6 6 -48 13 -95 16 -46 3 -103 6 -127 8
-23 1 -43 1 -45 0z m44 -584 c238 -45 206 -46 448 5 106 23 126 24 138 12 20
-20 32 -115 39 -322 8 -209 -11 -383 -51 -471 -34 -77 -122 -156 -247 -224
-88 -47 -159 -60 -233 -41 -62 16 -198 81 -257 123 -115 83 -158 140 -158 213
0 38 -13 46 -29 18 -8 -16 -13 -16 -48 -4 -39 14 -122 70 -123 83 0 5 32 -12
70 -37 39 -25 75 -45 80 -45 17 0 11 18 -13 37 -35 28 -39 40 -22 73 11 21 23
30 41 30 32 0 38 18 19 63 -22 53 -19 83 16 167 28 65 32 90 37 190 2 63 9
123 14 133 8 15 38 34 59 36 3 1 102 -17 220 -39z m-465 -405 c20 -15 38 -42
48 -72 9 -26 12 -43 8 -38 -5 6 -26 31 -46 58 -41 50 -59 57 -75 30 -14 -24
-14 -10 1 22 14 31 23 31 64 0z m462 -722 c62 -31 86 -37 158 -41 80 -4 88 -3
151 28 66 33 66 33 100 15 18 -10 33 -23 33 -29 0 -6 -15 -34 -34 -61 -85
-127 -309 -159 -500 -72 -57 26 -80 44 -133 106 -34 41 -63 80 -63 87 0 8 13
20 29 28 15 8 34 29 41 45 l12 30 66 -50 c37 -28 99 -66 140 -86z m436 -1118
c43 -36 63 -61 60 -70 -8 -21 -17 -19 -45 11 -38 42 -76 53 -139 43 -93 -16
-193 -44 -198 -57 -5 -17 21 -15 128 13 52 14 106 25 120 25 34 0 124 -89 114
-113 -8 -22 -17 -21 -40 4 -10 12 -29 25 -41 30 -32 12 -180 -1 -201 -18 -15
-13 -4 -14 83 -9 105 6 111 4 168 -44 19 -16 23 -60 5 -60 -6 0 -26 18 -45 40
-34 40 -35 40 -108 40 -75 0 -105 -6 -105 -20 0 -4 39 -7 86 -7 l86 2 39 -64
c22 -34 39 -67 39 -72 0 -19 -27 -8 -73 31 -41 34 -98 60 -131 60 -5 0 -14 -6
-20 -14 -16 -21 -162 -49 -217 -42 -43 6 -51 2 -210 -92 -293 -175 -596 -324
-769 -379 -77 -24 -202 -43 -288 -43 -80 0 -83 1 -92 26 -6 15 -13 66 -17 114
l-6 87 74 57 c41 32 97 70 124 85 28 16 77 45 110 65 74 45 123 60 460 142
149 36 342 83 431 104 89 22 206 58 260 81 102 43 260 98 281 99 6 0 41 -25
77 -55z m1080 -82 c3 -26 9 -97 12 -158 7 -106 6 -115 -19 -168 -14 -31 -22
-59 -17 -62 10 -6 21 9 45 60 22 45 25 130 11 263 -13 121 7 103 27 -25 21
-130 21 -147 3 -204 -7 -24 -19 -63 -25 -85 -11 -42 -11 -42 -90 -63 -88 -24
-371 -42 -371 -24 0 20 58 63 131 97 82 37 108 65 128 142 6 22 21 49 32 60
l22 19 -6 -45 c-16 -114 -44 -170 -107 -211 -33 -22 -20 -35 17 -16 44 23 71
58 92 120 32 91 37 144 16 167 -20 22 -16 89 6 116 22 27 28 0 31 -137 l3
-135 -39 -63 c-41 -66 -41 -96 0 -46 61 74 66 95 64 264 -3 189 -3 181 14 181
8 0 16 -17 20 -47z m-1218 -193 c15 -6 42 -24 61 -40 18 -16 44 -32 57 -36 21
-5 23 -9 16 -41 -5 -19 -10 -36 -12 -37 -1 -2 -81 23 -177 54 l-174 58 70 16
c39 8 81 20 94 25 31 13 33 13 65 1z m-71 -110 c183 -61 207 -72 189 -90 -10
-10 -394 128 -394 142 0 15 25 8 205 -52z m975 -48 c0 -5 -12 -14 -27 -21 -15
-7 -44 -26 -65 -42 -21 -17 -44 -28 -50 -26 -8 4 -4 8 10 13 17 5 22 13 20 33
-3 24 1 27 52 38 30 6 56 12 58 12 1 1 2 -3 2 -7z"/>
<path d="M1953 3660 c-75 -17 -171 -96 -146 -121 6 -6 24 2 49 21 49 35 119
53 198 48 48 -2 61 0 70 15 9 15 7 21 -8 33 -21 15 -107 18 -163 4z"/>
<path d="M2352 3655 c-22 -16 -22 -18 -7 -35 14 -16 27 -18 83 -13 37 3 78 0
92 -5 22 -10 20 -11 -23 -11 -27 -1 -58 -6 -69 -12 -47 -25 -105 -119 -74
-119 8 0 21 11 30 25 24 37 75 65 117 65 46 0 64 -21 60 -69 -3 -35 -3 -36 17
-18 11 10 26 33 33 50 7 18 17 35 23 39 19 13 -15 55 -65 83 -65 35 -182 46
-217 20z m223 -75 c3 -6 -1 -7 -9 -4 -18 7 -21 14 -7 14 6 0 13 -4 16 -10z"/>
<path d="M1928 3567 c-51 -15 -98 -42 -98 -57 0 -17 68 -86 76 -78 4 5 2 20
-5 34 -10 22 -9 30 4 44 37 41 132 31 198 -22 49 -39 64 -32 32 14 -44 65
-121 89 -207 65z"/>
<path d="M2445 3499 c-21 -17 -26 -28 -23 -50 4 -23 1 -29 -14 -29 -10 0 -18
-4 -18 -10 0 -6 30 -10 69 -10 54 0 74 4 92 20 20 16 21 19 7 20 -12 0 -18 8
-18 24 0 24 -32 56 -56 56 -6 0 -24 -10 -39 -21z"/>
<path d="M1986 3481 c-11 -12 -16 -31 -14 -48 3 -29 -7 -33 -44 -18 -28 11
-22 -14 6 -26 28 -13 172 -3 182 12 3 5 -3 9 -14 9 -15 0 -18 5 -14 25 10 54
-65 87 -102 46z"/>
<path d="M2254 3336 c-8 -21 13 -80 36 -101 28 -25 25 -50 -7 -64 -20 -9 -24
-14 -13 -21 28 -17 70 16 70 55 0 12 -11 32 -25 45 -14 13 -28 38 -31 57 -7
38 -21 52 -30 29z"/>
<path d="M2061 3044 c16 -16 42 -28 67 -31 55 -7 132 5 132 21 0 10 -16 12
-68 8 -51 -3 -76 0 -100 12 -46 24 -60 19 -31 -10z"/>
<path d="M4023 2353 c9 -2 23 -2 30 0 6 3 -1 5 -18 5 -16 0 -22 -2 -12 -5z"/>
<path d="M4082 2330 c0 -19 2 -27 5 -17 2 9 2 25 0 35 -3 9 -5 1 -5 -18z"/>
<path d="M4072 2270 c0 -14 2 -19 5 -12 2 6 2 18 0 25 -3 6 -5 1 -5 -13z"/>
<path d="M4062 2220 c0 -14 2 -19 5 -12 2 6 2 18 0 25 -3 6 -5 1 -5 -13z"/>
<path d="M4051 2154 c0 -11 3 -14 6 -6 3 7 2 16 -1 19 -3 4 -6 -2 -5 -13z"/>
<path d="M4042 2090 c0 -19 2 -27 5 -17 2 9 2 25 0 35 -3 9 -5 1 -5 -18z"/>
<path d="M3996 1813 c-21 -131 -40 -249 -42 -263 -4 -22 -3 -23 5 -5 14 32 89
505 80 505 -2 0 -21 -107 -43 -237z"/>
<path d="M3927 1411 c-10 -57 -16 -106 -14 -108 7 -6 39 185 35 199 -2 6 -12
-35 -21 -91z"/>
<path d="M3888 1273 c7 -3 16 -2 19 1 4 3 -2 6 -13 5 -11 0 -14 -3 -6 -6z"/>
</g>
</svg>
