<svg width="124" height="124" viewBox="0 0 124 124" fill="none" xmlns="http://www.w3.org/2000/svg">
<rect width="124" height="124" rx="6" fill="#0E091B"/>
<g clip-path="url(#clip0_1644_48)">
<path d="M 56.6005 98.9782 C 47.57 98.9782 40.4959 82.9114 40.4959 62.3999 S 47.57 25.8216 56.6005 25.8216 C 65.6298 25.8216 72.7037 41.8885 72.7037 62.3999 S 65.6298 98.9782 56.6005 98.9782 Z M 56.6005 28.3885 C 49.2619 28.3885 43.0629 43.9642 43.0629 62.3999 S 49.2621 96.4114 56.6005 96.4114 C 63.9376 96.4114 70.1368 80.8357 70.1368 62.3999 S 63.9378 28.3885 56.6005 28.3885 Z M 36.2909 85.4982 C 30.8802 85.4982 26.7916 83.9276 24.9217 80.6891 C 20.4071 72.868 30.785 58.7088 48.5477 48.4524 L 48.5477 48.4524 C 56.8562 43.6556 65.4744 40.501 72.8129 39.5723 C 80.5223 38.5934 86.0245 40.2041 88.2782 44.1108 C 92.7927 51.9317 82.4148 66.0911 64.6522 76.346 C 54.2455 82.3547 43.9453 85.4982 36.2909 85.4982 Z M 49.8311 50.676 C 33.8656 59.8932 23.4764 73.0509 27.145 79.4057 C 30.8149 85.7627 47.4045 83.3412 63.3686 74.1227 C 79.334 64.9055 89.7233 51.7488 86.0544 45.3942 C 84.3751 42.485 79.6648 41.2919 73.1349 42.1178 C 66.1273 43.0064 57.8515 46.0448 49.8311 50.676 L 49.8311 50.676 Z M 76.9828 85.507 C 75.6781 85.507 74.2867 85.4142 72.8128 85.2274 C 65.4742 84.2975 56.8561 81.1441 48.5475 76.346 C 30.785 66.0898 20.4071 51.9306 24.9217 44.1108 C 29.4375 36.291 46.8907 38.1998 64.6522 48.4524 C 82.4148 58.7074 92.7927 72.868 88.2782 80.6891 C 86.4544 83.8488 82.5102 85.507 76.9828 85.507 Z M 36.1218 41.842 C 31.7689 41.842 28.5326 42.9903 27.145 45.3942 C 23.4764 51.7488 33.8656 64.9055 49.8311 74.1227 L 49.8311 74.1227 C 57.8515 78.7539 66.1275 81.7933 73.135 82.682 C 79.6712 83.5104 84.3752 82.3159 86.0546 79.4057 C 89.7234 73.0498 79.3353 59.8932 63.3688 50.676 C 53.442 44.9456 43.2748 41.842 36.1218 41.842 Z" fill="#45A29E"/>
</g>
<defs>
<clipPath id="clip0_1644_48">
<rect width="80" height="72.8358" fill="white" transform="translate(22 26)"/>
</clipPath>
</defs>
</svg>
