<svg width="733" height="855" viewBox="0 0 733 855" fill="none" xmlns="http://www.w3.org/2000/svg">
<g id="Frame 2">
<g id="default">
<path id="Union" fill-rule="evenodd" clip-rule="evenodd" d="M43.0045 672C43.199 682.065 50.9761 692.101 66.3358 699.781L309.963 821.594C341.076 837.151 391.521 837.151 422.635 821.594L666.262 699.781C682.822 691.501 690.568 680.483 689.5 669.641V514H401.293C379.275 508.618 353.323 508.618 331.304 514H43V672H43.0045Z" fill="url(#paint0_linear_2027_158)"/>
<rect id="Rectangle 464" x="11.2672" width="385.757" height="385.757" rx="56.6868" transform="matrix(0.894427 -0.447214 0.894427 0.447214 11.1895 519.188)" fill="#C5C6C9" stroke="#C5C6C9" stroke-width="12.5971"/>
<g id="Rectangle 465" filter="url(#filter0_i_2027_158)">
<rect width="249.416" height="249.416" rx="39.4362" transform="matrix(0.894427 -0.447214 0.894427 0.447214 145.529 511.714)" fill="#261D3C"/>
</g>
<path id="{ )"
d="M383.024 472.6C381.278 471.592 379.657 470.944 378.16 470.656C376.747 470.416 374.959 470.68 372.798 471.448C370.719 472.264 367.768 473.776 363.943 475.984L351.722 483.04C348.563 484.864 345.32 486.16 341.995 486.928C338.836 487.696 335.926 488.128 333.265 488.224C330.605 488.32 328.36 488.272 326.531 488.08C326.781 488.992 326.822 490.216 326.656 491.752C326.656 493.288 326.157 494.92 325.159 496.648C324.245 498.328 322.582 499.864 320.171 501.256L305.206 509.896C301.465 512.056 298.888 513.736 297.474 514.936C296.144 516.184 295.687 517.216 296.102 518.032C296.601 518.896 297.724 519.832 299.47 520.84L304.084 523.504L288.869 532.288L279.017 526.6C276.69 525.256 274.403 523.888 272.159 522.496C269.997 521.152 268.376 519.688 267.295 518.104C266.131 516.568 266.048 514.84 267.046 512.92C268.043 511.096 270.537 509.032 274.528 506.728L295.105 494.848C298.846 492.688 301.34 490.288 302.587 487.648C303.917 484.96 302.92 482.608 299.594 480.592L314.06 472.24C317.552 474.16 321.584 474.76 326.157 474.04C330.73 473.32 334.928 471.856 338.752 469.648L358.456 458.272C362.447 455.968 366.022 454.528 369.181 453.952C372.34 453.376 375.25 453.376 377.911 453.952C380.654 454.576 383.232 455.536 385.643 456.832C388.137 458.08 390.589 459.4 393 460.792L402.852 466.48L387.638 475.264L383.024 472.6ZM433.226 550.977C424.746 555.873 415.767 559.857 406.289 562.929C396.895 566.049 387.75 568.353 378.854 569.841C369.875 571.377 361.727 572.193 354.411 572.289L346.679 560.193C357.238 559.761 368.378 558.033 380.101 555.009C391.906 551.937 403.546 547.089 415.019 540.465C426.492 533.841 434.847 527.145 440.085 520.377C445.406 513.56 448.399 507.128 449.064 501.08L470.14 505.472C469.973 509.696 468.56 514.4 465.9 519.584C463.239 524.768 459.207 530.072 453.803 535.497C448.565 540.921 441.706 546.081 433.226 550.977Z"
fill="#5C566D"/>
</g>
<g id="luz-logo">
<g id="luz" filter="url(#filter1_i_2027_158)">
<rect width="249.416" height="249.416" rx="39.4362" transform="matrix(0.894427 -0.447214 0.894427 0.447214 145.529 511.714)" fill="url(#paint1_linear_2027_158)"/>
</g>
</g>
<g id="luz_2">
<path id="luz-logo_2" fill-rule="evenodd" clip-rule="evenodd" d="M570.68 124.014C571.204 118.345 567.971 108.961 550.839 101.654L411.012 32.6852C397.05 23.8673 360.183 11.5222 324.407 32.6852L186.469 101.654C179.856 104.384 166.44 112.299 165.684 122.124V490.589H165.736V511.656C165.211 515.435 168.444 524.82 185.576 532.126L325.404 601.095C339.365 609.913 376.233 622.258 412.008 601.095L549.946 532.126C556.56 529.397 569.976 521.481 570.732 511.656V487.091H570.68V124.014Z" fill="url(#paint2_linear_2027_158)"/>
</g>
<g id="logo-kpcode">
<path id="logo" d="M 285.6856 255.5264 C 285.6856 259.2542 288.7078 262.2764 292.4356 262.2764 S 299.1856 259.2542 299.1856 255.5264 V 202.7621 C 299.1856 200.0315 297.5413 197.5709 295.0186 196.526 C 292.4977 195.482 289.5934 196.0589 287.6629 197.9894 L 270.5593 215.093 C 267.9232 217.7291 267.9232 222.0032 270.5593 224.6384 C 273.1954 227.2745 277.4695 227.2745 280.1047 224.6384 L 285.6856 219.0575 V 255.5264 Z M 325.5511 138.6263 L 331.132 133.0454 V 169.5143 C 331.132 173.2421 334.1542 176.2643 337.882 176.2643 S 344.632 173.2421 344.632 169.5143 V 116.75 C 344.632 114.0194 342.9877 111.5588 340.465 110.5139 C 337.9441 109.4699 335.0398 110.0468 333.1093 111.9773 L 316.0057 129.0809 C 313.3696 131.717 313.3696 135.9911 316.0057 138.6263 C 318.6418 141.2624 322.9159 141.2624 325.5511 138.6263 Z M 402.5335 196.526 C 400.0126 195.482 397.1083 196.0589 395.1778 197.9894 L 378.0742 215.093 C 375.4381 217.7291 375.4381 222.0032 378.0742 224.6384 C 380.7103 227.2745 384.9844 227.2745 387.6196 224.6384 L 393.2005 219.0575 V 255.5264 C 393.2005 259.2542 396.2227 262.2764 399.9505 262.2764 S 406.7005 259.2542 406.7005 255.5264 V 202.7621 C 406.7005 200.0324 405.0562 197.5709 402.5335 196.526 Z M 373.1953 279.6005 C 370.6744 278.5565 367.7701 279.1334 365.8396 281.0639 L 348.736 298.1675 C 346.0999 300.8036 346.0999 305.0777 348.736 307.7129 C 351.3721 310.349 355.6462 310.349 358.2814 307.7129 L 363.8623 302.132 V 322.1093 C 363.8623 325.8371 366.8845 328.8593 370.6123 328.8593 S 377.3623 325.8371 377.3623 322.1093 V 285.8366 C 377.3623 283.106 375.718 280.6454 373.1953 279.6005 Z M 361.7536 239.078 V 219.2114 C 361.7536 206.4197 351.3469 196.013 338.5552 196.013 H 338.2231 C 325.4314 196.013 315.0247 206.4197 315.0247 219.2114 V 239.078 C 315.0247 251.8697 325.4314 262.2764 338.2231 262.2764 H 338.5552 C 351.3469 262.2764 361.7536 251.8697 361.7536 239.078 Z M 348.2536 239.078 C 348.2536 244.4258 343.903 248.7764 338.5552 248.7764 H 338.2231 C 332.8753 248.7764 328.5247 244.4258 328.5247 239.078 V 219.2114 C 328.5247 213.8636 332.8753 209.513 338.2231 209.513 H 338.5552 C 343.903 209.513 348.2536 213.8636 348.2536 219.2114 V 239.078 Z M 446.5705 196.0121 H 446.2384 C 433.4467 196.0121 423.04 206.4188 423.04 219.2105 V 239.0771 C 423.04 251.8688 433.4467 262.2755 446.2384 262.2755 H 446.5705 C 459.3622 262.2755 469.7689 251.8688 469.7689 239.0771 V 219.2105 C 469.7689 206.4197 459.3622 196.0121 446.5705 196.0121 Z M 456.2689 239.078 C 456.2689 244.4258 451.9183 248.7764 446.5705 248.7764 H 446.2384 C 440.8906 248.7764 436.54 244.4258 436.54 239.078 V 219.2114 C 436.54 213.8636 440.8906 209.513 446.2384 209.513 H 446.5705 C 451.9183 209.513 456.2689 213.8636 456.2689 219.2114 V 239.078 Z M 384.0016 110 H 383.6695 C 370.8778 110 360.4711 120.4067 360.4711 133.1984 V 153.065 C 360.4711 165.8567 370.8778 176.2634 383.6695 176.2634 H 384.0016 C 387.7294 176.2634 390.7516 173.2412 390.7516 169.5134 S 387.7294 162.7634 384.0016 162.7634 H 383.6695 C 378.3217 162.7634 373.9711 158.4128 373.9711 153.065 V 133.1984 C 373.9711 127.8506 378.3217 123.5 383.6695 123.5 H 384.0016 C 389.3494 123.5 393.7 127.8506 393.7 133.1984 C 393.7 136.9262 396.7222 139.9484 400.45 139.9484 S 407.2 136.9262 407.2 133.1984 C 407.2009 120.4067 396.7942 110 384.0016 110 Z M 446.5705 110 H 446.2384 C 433.4467 110 423.04 120.4067 423.04 133.1984 V 153.065 C 423.04 165.8567 433.4467 176.2634 446.2384 176.2634 H 446.5705 C 459.3622 176.2634 469.7689 165.8567 469.7689 153.065 V 133.1984 C 469.7689 120.4067 459.3622 110 446.5705 110 Z M 456.2689 153.0659 C 456.2689 158.4137 451.9183 162.7643 446.5705 162.7643 H 446.2384 C 440.8906 162.7643 436.54 158.4137 436.54 153.0659 V 133.1984 C 436.54 127.8506 440.8906 123.5 446.2384 123.5 H 446.5705 C 451.9183 123.5 456.2689 127.8506 456.2689 133.1984 V 153.0659 Z M 307.0138 279.0866 H 306.6817 C 293.89 279.0866 283.4833 289.4933 283.4833 302.285 V 322.1516 C 283.4833 334.9433 293.89 345.35 306.6817 345.35 H 307.0138 C 319.8055 345.35 330.2122 334.9433 330.2122 322.1516 V 302.285 C 330.2131 289.4942 319.8064 279.0866 307.0138 279.0866 Z M 316.7131 322.1525 C 316.7131 327.5003 312.3625 331.8509 307.0147 331.8509 H 306.6826 C 301.3348 331.8509 296.9842 327.5003 296.9842 322.1525 V 302.285 C 296.9842 296.9372 301.3348 292.5866 306.6826 292.5866 H 307.0147 C 312.3625 292.5866 316.7131 296.9372 316.7131 302.285 V 322.1525 Z" fill="#02D1FF"/>
</g>
</g>
<defs>
<filter id="filter0_i_2027_158" x="166.191" y="410.503" width="404.845" height="202.423" filterUnits="userSpaceOnUse" color-interpolation-filters="sRGB">
<feFlood flood-opacity="0" result="BackgroundImageFix"/>
<feBlend mode="normal" in="SourceGraphic" in2="BackgroundImageFix" result="shape"/>
<feColorMatrix in="SourceAlpha" type="matrix" values="0 0 0 0 0 0 0 0 0 0 0 0 0 0 0 0 0 0 127 0" result="hardAlpha"/>
<feOffset dy="15.7463"/>
<feComposite in2="hardAlpha" operator="arithmetic" k2="-1" k3="1"/>
<feColorMatrix type="matrix" values="0 0 0 0 1 0 0 0 0 1 0 0 0 0 1 0 0 0 0.25 0"/>
<feBlend mode="normal" in2="shape" result="effect1_innerShadow_2027_158"/>
</filter>
<filter id="filter1_i_2027_158" x="166.191" y="410.503" width="404.845" height="202.423" filterUnits="userSpaceOnUse" color-interpolation-filters="sRGB">
<feFlood flood-opacity="0" result="BackgroundImageFix"/>
<feBlend mode="normal" in="SourceGraphic" in2="BackgroundImageFix" result="shape"/>
<feColorMatrix in="SourceAlpha" type="matrix" values="0 0 0 0 0 0 0 0 0 0 0 0 0 0 0 0 0 0 127 0" result="hardAlpha"/>
<feOffset dy="15.7463"/>
<feComposite in2="hardAlpha" operator="arithmetic" k2="-1" k3="1"/>
<feColorMatrix type="matrix" values="0 0 0 0 1 0 0 0 0 1 0 0 0 0 1 0 0 0 0.25 0"/>
<feBlend mode="normal" in2="shape" result="effect1_innerShadow_2027_158"/>
</filter>
<linearGradient id="paint0_linear_2027_158" x1="43" y1="510.001" x2="690" y2="833.001" gradientUnits="userSpaceOnUse">
<stop stop-color="#1F2833"/>
<stop offset="1" stop-color="#0B0C10" stop-opacity="0"/>
</linearGradient>
<linearGradient id="paint1_linear_2027_158" x1="0.0653307" y1="249.221" x2="178.823" y2="284.972" gradientUnits="userSpaceOnUse">
<stop stop-color="#556a85"/>
<stop offset="1" stop-color="#02D1FF"/>
</linearGradient>
<linearGradient id="paint2_linear_2027_158" x1="368.497" y1="112.329" x2="368.208" y2="612.78" gradientUnits="userSpaceOnUse">
<stop stop-color="#556a85" stop-opacity="0"/>
<stop offset="1" stop-color="#556a85" stop-opacity="0.15"/>
</linearGradient>
</defs>
</svg>
