<svg width="380" height="80" viewBox="0 0 380 100" fill="none" xmlns="http://www.w3.org/2000/svg">
<path d="M 90.652 22.517 L 78.124 64.799 L 71.613 36.941 C 70.616 32.451 60.248 32.448 59.25 36.941 L 52.739 64.799 L 40.211 22.517 C 38.766 17.465 26.232 21.226 27.93 26.308 L 44.332 76.584 C 46.17 82.438 59.872 82.153 61.145 76.584 L 65.432 57.05 L 69.717 76.584 C 70.972 82.075 84.496 82.519 86.532 76.584 L 102.933 26.308 C 104.612 21.207 92.091 17.477 90.652 22.517 Z M 149.343 31.335 C 154.436 31.335 154.601 20.126 149.343 20.126 H 120.002 C 117.198 20.126 114.396 21.445 114.396 24.082 V 76.419 C 114.396 79.056 117.2 80.375 120.002 80.375 H 149.343 C 154.598 80.375 154.439 69.166 149.343 69.166 H 127.254 V 55.155 H 139.617 C 144.857 55.155 144.7 45.264 139.617 45.264 H 127.254 V 31.335 H 149.343 Z M 197.064 69.166 H 178.273 V 24 C 178.273 21.28 175.06 20.126 171.844 20.126 C 168.631 20.126 165.416 21.28 165.416 24 V 76.419 C 165.416 79.056 168.22 80.375 171.022 80.375 H 197.064 C 202.01 80.375 202.01 69.166 197.064 69.166 Z M 231.275 31.336 C 238.281 31.336 238.526 36.61 238.611 38.753 C 238.775 41.72 241.578 42.627 245.04 42.627 C 249.407 42.627 251.468 41.473 251.468 36.528 C 251.468 15.921 211 11.794 211 39.577 V 61.419 C 211 89.143 251.468 85.42 251.468 63.645 C 251.468 58.7 249.407 57.546 244.957 57.546 C 241.66 57.546 238.857 58.371 238.61 61.42 C 238.364 64.635 237.95 69.661 231.357 69.661 C 226.577 69.661 223.857 67.024 223.857 61.42 V 39.579 C 223.857 33.973 226.577 31.336 231.275 31.336 Z M 284.111 20.126 C 272.736 20.126 263.916 25.401 263.916 39.578 V 61.42 C 263.916 75.596 272.735 80.87 284.111 80.872 C 295.484 80.872 304.386 75.597 304.386 61.42 V 39.578 C 304.386 25.401 295.484 20.126 284.111 20.126 Z M 291.526 61.419 C 291.526 67.105 288.725 69.66 284.109 69.66 C 279.493 69.66 276.773 67.105 276.773 61.419 V 39.577 C 276.773 33.889 279.493 31.334 284.109 31.334 C 288.725 31.334 291.526 33.889 291.526 39.577 V 61.419 Z M 362.577 20.127 C 357.96 20.127 355.984 20.62 352.604 26.555 L 344.115 41.391 L 335.625 26.555 C 332.246 20.621 330.268 20.127 325.653 20.127 C 322.438 20.127 319.224 21.857 319.224 26.555 V 76.42 C 319.224 81.695 332.083 81.695 332.083 76.42 V 44.687 L 339.912 59.029 C 341.642 62.349 346.395 62.145 348.235 59.029 L 356.146 45.512 V 76.42 C 356.146 81.695 369.005 81.695 369.005 76.42 V 26.555 C 369.005 21.858 365.873 20.127 362.577 20.127 Z M 419.452 31.335 C 424.546 31.335 424.708 20.126 419.452 20.126 H 390.111 C 387.307 20.126 384.505 21.445 384.505 24.082 V 76.419 C 384.505 79.056 387.309 80.375 390.111 80.375 H 419.452 C 424.707 80.375 424.548 69.166 419.452 69.166 H 397.363 V 55.155 H 409.726 C 414.966 55.155 414.809 45.264 409.726 45.264 H 397.363 V 31.335 H 419.452 Z" fill="#909090"/>

</svg>
