<svg width="76" height="90" viewBox="0 0 66 57" fill="none" xmlns="http://www.w3.org/2000/svg">

<path d="M 11.25 9 C 12.4926 9 13.5 10.0074 13.5 11.25 L 13.5 58.5 L 60.75 58.5 C 61.9926 58.5 63 59.5074 63 60.75 C 63 61.9926 61.9926 63 60.75 63 L 11.25 63 C 10.0074 63 9 61.9926 9 60.75 L 9 11.25 C 9 10.0074 10.0074 9 11.25 9 Z Z" stroke="#B8B8BA" stroke-width="1.5" stroke-linecap="round" stroke-linejoin="round"/>
<!-- <path d="M 10.06 17.88 A 4.25 4.25 0 0 0 11 18 A 4 4 0 0 0 13.23 17.32 L 16.45 20.19 A 3.88 3.88 0 0 0 16.25 23.36 A 4 4 0 1 0 22.62 19 L 25.16 13.91 A 3.78 3.78 0 0 0 28.07 13.38 A 4 4 0 1 0 23.38 13 L 20.84 18.09 A 3.86 3.86 0 0 0 20 18 A 4 4 0 0 0 17.77 18.68 L 14.55 15.81 A 3.88 3.88 0 0 0 14.75 12.64 A 4 4 0 1 0 8.3 16.93 L 4 25 V 2 H 2 V 28 A 2 2 0 0 0 4 30 H 30 V 28 H 4.67 Z M 26 8 A 2 2 0 1 1 24 10 A 2 2 0 0 1 26 8 Z M 22 22 A 2 2 0 1 1 20 20 A 2 2 0 0 1 22 22 Z M 11 12 A 2 2 0 1 1 9 14 A 2 2 0 0 1 11 12 Z" stroke="#B8B8BA" stroke-width="1.5" stroke-linecap="round" stroke-linejoin="round"/>
-->
<path d="M 11.25 9 M 45 36 C 49.9707 36 54 40.0293 54 45 C 54 49.9707 49.9707 54 45 54 C 40.0293 54 36 49.9707 36 45 C 36 40.0293 40.0293 36 45 36 Z M 45 40.5 C 42.5148 40.5 40.5 42.5148 40.5 45 C 40.5 47.4852 42.5148 49.5 45 49.5 C 47.4852 49.5 49.5 47.4852 49.5 45 C 49.5 42.5148 47.4852 40.5 45 40.5 Z M 27 18 C 31.9707 18 36 22.0293 36 27 C 36 31.9707 31.9707 36 27 36 C 22.0293 36 18 31.9707 18 27 C 18 22.0293 22.0293 18 27 18 Z M 27 22.5 C 24.5148 22.5 22.5 24.5148 22.5 27 C 22.5 29.4852 24.5148 31.5 27 31.5 C 29.4852 31.5 31.5 29.4852 31.5 27 C 31.5 24.5148 29.4852 22.5 27 22.5 Z M 51 12 C 55.9707 12 60 16.0293 60 21 C 60 25.9707 55.9707 30 51 30 C 46.0293 30 42 25.9707 42 21 C 42 16.0293 46.0293 12 51 12 Z M 51 16.5 C 48.5148 16.5 46.5 18.5148 46.5 21 C 46.5 23.4852 48.5148 25.5 51 25.5 C 53.4852 25.5 55.5 23.4852 55.5 21 C 55.5 18.5148 53.4852 16.5 51 16.5 Z" stroke="url(#paint1_linear_2173_285)" stroke-width="1.5"/>

<defs>
<linearGradient id="paint0_linear_2173_285" x1="50.6294" y1="-9.75326" x2="22.1782" y2="39.0841" gradientUnits="userSpaceOnUse">
<stop stop-color="white"/>
<stop offset="1" stop-color="white" stop-opacity="0"/>
</linearGradient>
<linearGradient id="paint1_linear_2173_285" x1="33.1557" y1="24.5165" x2="3.55992" y2="58.4025" gradientUnits="userSpaceOnUse">
<stop stop-color="#45A29E"/>
<stop offset="1" stop-color="#45A29E" stop-opacity="0"/>
</linearGradient>
</defs>
</svg>
