<?xml version="1.0" encoding="iso-8859-1"?>
<!-- Generator: Adobe Illustrator 19.0.0, SVG Export Plug-In . SVG Version: 6.00 Build 0)  -->
<svg version="1.1" id="Layer_1" xmlns="http://www.w3.org/2000/svg" xmlns:xlink="http://www.w3.org/1999/xlink" x="0px" y="0px"
	 viewBox="0 0 512 512" style="enable-background:new 0 0 512 512;" xml:space="preserve">
<path style="fill:#E8E6D9;" d="M388.042,167.716c-6.231-12.666-21.518-17.91-34.205-11.763
	c-12.717,6.163-17.837,22.111-11.638,34.811c8.401,17.213,21.23,52.167,14.569,95.547c-4.857,31.636-18.22,55.895-30.437,72.303
	h-39.493c17.387-10.473,29.019-29.53,29.019-51.307c0-33.059-26.799-59.858-59.858-59.858s-59.858,26.799-59.858,59.858
	c0,21.777,11.632,40.834,29.019,51.307h-39.495c-12.215-16.408-25.579-40.666-30.437-72.303
	c-6.661-43.38,6.168-78.334,14.569-95.547c6.199-12.7,1.077-28.647-11.638-34.811c-12.686-6.148-27.973-0.903-34.205,11.763
	c-11.056,22.477-28.283,68.783-19.44,126.382c9.039,58.867,40.422,98.36,58.325,116.66c2.264,2.313,4.868,4.079,7.645,5.353v79.322
	c0,4.722,3.829,8.551,8.551,8.551h153.921c4.722,0,8.551-3.829,8.551-8.551v-79.322c2.777-1.273,5.381-3.04,7.645-5.353
	c17.904-18.301,49.287-57.792,58.325-116.66C416.324,236.499,399.098,190.194,388.042,167.716z"/>
<g>
	<path style="fill:#D1CDB2;" d="M225.16,358.614h17.102c-17.387-10.473-29.019-29.53-29.019-51.307
		c0-30.155,22.3-55.09,51.307-59.24c-2.794-0.4-5.647-0.618-8.551-0.618c-33.059,0-59.858,26.799-59.858,59.858
		C196.142,329.083,207.773,348.141,225.16,358.614z"/>
	<path style="fill:#D1CDB2;" d="M187.591,495.432v-79.322c-2.777-1.273-5.381-3.04-7.645-5.353
		c-17.904-18.301-49.287-57.792-58.325-116.66c-8.843-57.599,8.383-103.905,19.44-126.382c3.079-6.26,8.374-10.704,14.471-12.859
		c-12.101-4.297-25.768,1.057-31.573,12.859c-11.056,22.477-28.283,68.783-19.44,126.382c9.039,58.867,40.422,98.36,58.325,116.66
		c2.264,2.313,4.868,4.079,7.645,5.353v79.322c0,4.722,3.829,8.551,8.551,8.551h17.102
		C191.418,503.983,187.591,500.155,187.591,495.432z"/>
</g>
<path style="fill:#66BF00;" d="M393.129,101.767c0,0-6.047,78.605-36.279,108.838c-24.186,24.186-58.569,26.083-78.605,6.047
	s-18.14-54.42,6.047-78.605C314.524,107.814,393.129,101.767,393.129,101.767z"/>
<path style="fill:#58AB23;" d="M382.434,102.918c-3.696,25.042-13.012,69.773-34.135,90.897
	c-24.186,24.186-58.569,26.083-78.605,6.047c-1.194-1.194-2.305-2.442-3.342-3.733c2.108,7.65,6.066,14.696,11.894,20.523
	c20.036,20.036,54.419,18.14,78.605-6.047c30.233-30.233,36.279-108.838,36.279-108.838S389.062,102.081,382.434,102.918z"/>
<path style="fill:#66BF00;" d="M127.42,101.767c0,0,6.047,78.605,36.279,108.838c24.186,24.186,58.569,26.083,78.605,6.047
	s18.14-54.42-6.047-78.605C206.026,107.814,127.42,101.767,127.42,101.767z"/>
<path style="fill:#58AB23;" d="M251.168,199.55c-20.036,20.036-54.42,18.14-78.605-6.047
	c-21.023-21.023-30.349-65.431-34.082-90.538c-6.845-0.872-11.061-1.197-11.061-1.197s6.047,78.605,36.279,108.838
	c24.186,24.186,58.569,26.083,78.605,6.047c5.806-5.806,9.758-12.82,11.871-20.438C253.232,197.362,252.238,198.481,251.168,199.55z
	"/>
<path d="M395.235,164.177c-1.075-2.185-2.394-4.236-3.904-6.132c7.549-27.919,9.647-53.782,9.791-55.662
	c0.37-4.812-3.782-9.002-8.608-8.608c-1.831,0.141-26.403,2.136-53.47,9.209c1.271-5.883,1.933-11.901,1.933-18.007
	C340.977,38.12,302.856,0,256,0s-84.977,38.12-84.977,84.977c0,5.342,0.51,10.625,1.487,15.811
	c-23.303-5.303-42.849-6.889-44.475-7.014c-4.827-0.391-8.979,3.792-8.608,8.608c0.134,1.733,1.929,23.854,8.124,49.178
	c-4.579,3.228-8.28,7.52-10.788,12.617c-5.088,10.344-12.171,27.11-17.024,48.249c-0.966,4.205,1.69,8.52,5.87,9.57
	c4.296,1.079,8.766-1.67,9.756-5.982c4.509-19.637,11.073-35.179,15.785-44.76c0.384-0.78,0.824-1.522,1.308-2.229
	c4.956,15.416,11.696,30.584,20.79,41.889c-7.76,24.884-9.83,51.299-5.943,76.613c4.174,27.186,15.216,53.422,31.93,75.872
	c1.515,2.034,3.898,3.231,6.432,3.231h39.493c3.449,0,6.592-2.296,7.638-5.583c1.113-3.495-0.36-7.409-3.502-9.302
	c-15.741-9.482-25.138-26.095-25.138-44.439c0-28.585,23.256-51.841,51.841-51.841s51.841,23.256,51.841,51.841
	c0,18.344-9.398,34.957-25.139,44.439c-3.141,1.893-4.614,5.806-3.502,9.302c1.046,3.288,4.189,5.583,7.638,5.583h39.493
	c2.533,0,4.918-1.197,6.43-3.229c16.714-22.45,27.756-48.687,31.93-75.872c3.56-23.184,2.238-46.59-3.904-69.592
	c0.58-0.548,1.163-1.093,1.731-1.661c9.372-9.372,16.542-22.755,22.006-37.074c10.301,23.609,22.608,64.331,15.032,113.68
	c-8.699,56.654-38.902,94.659-56.132,112.27c-0.996,1.018-2.121,1.907-3.335,2.65c-1.146,0.701-2.437,1.152-3.502,1.982
	c-1.936,1.506-3.094,3.876-3.094,6.328v79.32c0,0.294-0.239,0.534-0.534,0.534H179.039c-0.295,0-0.534-0.241-0.534-0.534v-79.322
	c0-2.453-1.159-4.822-3.094-6.328c-1.066-0.828-2.356-1.281-3.502-1.982c-1.214-0.743-2.339-1.632-3.334-2.65
	c-17.231-17.612-47.433-55.617-56.133-112.269c-1.961-12.778-2.698-25.804-2.188-38.719c0.175-4.424-3.271-8.152-7.694-8.327
	c-4.432-0.169-8.152,3.27-8.327,7.694c-0.55,13.937,0.245,27.994,2.361,41.784c9.378,61.084,41.943,102.06,60.52,121.049
	c1.627,1.663,3.418,3.144,5.357,4.433v74.635c0,9.136,7.432,16.568,16.568,16.568H332.96c9.136,0,16.568-7.432,16.568-16.568
	v-74.634c1.939-1.289,3.732-2.771,5.358-4.433c18.575-18.989,51.14-59.965,60.519-121.05
	C424.581,235.549,406.706,187.5,395.235,164.177z M295.649,119.716h-0.937c1.781-8.416,2.9-17.453,3.311-26.722h26.442
	c-0.612,5.302-1.835,10.49-3.658,15.509C311.976,111.589,303.361,115.293,295.649,119.716z M260.275,161.19
	c-3.18-9.112-8.326-17.772-15.18-25.441h30.362C268.601,143.418,263.455,152.078,260.275,161.19z M187.537,76.96
	c1.123-9.653,4.248-18.7,8.948-26.722h20.728c-1.734,8.228-2.854,17.201-3.258,26.722H187.537z M298.044,76.96
	c-0.404-9.522-1.523-18.494-3.258-26.722h20.728c4.701,8.022,7.824,17.069,8.948,26.722H298.044z M290.305,34.205
	c-1.513-4.218-3.22-8.115-5.095-11.658c6.383,2.998,12.237,6.941,17.374,11.658H290.305z M273.066,34.205h-34.132
	c5.16-11.713,11.643-18.171,17.066-18.171S267.906,22.492,273.066,34.205z M221.695,34.205h-12.278
	c5.137-4.717,10.99-8.659,17.374-11.658C224.913,26.09,223.207,29.987,221.695,34.205z M233.642,50.238h44.715
	c1.87,7.771,3.182,16.727,3.645,26.722h-52.005C230.46,66.965,231.772,58.009,233.642,50.238z M281.976,92.994
	c-0.456,9.392-1.709,18.466-3.698,26.722H233.72c-1.989-8.257-3.241-17.329-3.697-26.722H281.976z M187.528,92.994h26.449
	c0.34,7.666,1.162,15.171,2.445,22.3c-8.329-3.956-17.326-7.219-26.288-9.898C188.88,101.354,188.015,97.207,187.528,92.994z
	 M230.59,143.716c10.241,10.241,16.378,22.937,17.279,35.751c0.655,9.318-1.516,18.032-6.171,25.24l-15.562-15.562v-32.958
	c0-4.428-3.589-8.017-8.017-8.017s-8.017,3.588-8.017,8.017v16.925l-34.688-34.687c-3.131-3.13-8.207-3.13-11.337,0
	c-3.131,3.132-3.131,8.207,0,11.338l34.687,34.687H181.84c-4.427,0-8.017,3.588-8.017,8.017c0,4.428,3.589,8.017,8.017,8.017h32.958
	l15.561,15.561c-7.206,4.654-15.92,6.824-25.239,6.172c-12.814-0.901-25.511-7.038-35.752-17.28
	c-21.785-21.785-30.251-72.796-32.915-94.136C157.793,113.464,208.805,121.93,230.59,143.716z M348.845,285.094
	c-4.427,28.838-16.45,51.101-26.604,65.503H308.35c9.942-11.959,15.525-27.109,15.525-43.29c0-37.426-30.448-67.875-67.875-67.875
	s-67.875,30.448-67.875,67.875c0,16.181,5.583,31.331,15.525,43.29h-13.891c-10.153-14.403-22.176-36.666-26.604-65.503
	c-3.163-20.6-2.085-41.268,3.166-61.589c12.105,9.211,26.967,14.904,42.27,14.86c13.919-0.04,27.528-5.039,37.793-14.515
	c6.131-5.66,10.908-12.704,13.892-20.496c4.71,12.303,13.924,22.661,25.613,28.745c11.726,6.104,25.4,7.593,38.313,5.107
	c7.997-1.539,15.677-4.57,22.672-8.725C351.067,247.253,351.736,266.262,348.845,285.094z M351.182,204.937
	c-10.242,10.242-22.938,16.379-35.752,17.28c-9.315,0.649-18.03-1.519-25.239-6.172l15.561-15.561h32.958
	c4.427,0,8.017-3.588,8.017-8.017c0-4.428-3.589-8.017-8.017-8.017h-16.925l34.687-34.687c3.131-3.132,3.131-8.207,0-11.338
	c-3.131-3.13-8.207-3.13-11.337,0l-34.688,34.687v-16.926c0-4.428-3.589-8.017-8.017-8.017c-4.427,0-8.017,3.588-8.017,8.017v32.958
	l-15.562,15.562c-4.655-7.208-6.826-15.922-6.171-25.24c0.901-12.814,7.038-25.51,17.279-35.751
	c21.785-21.786,72.797-30.252,94.137-32.917C381.432,132.14,372.967,183.152,351.182,204.937z"/>
<g>
</g>
<g>
</g>
<g>
</g>
<g>
</g>
<g>
</g>
<g>
</g>
<g>
</g>
<g>
</g>
<g>
</g>
<g>
</g>
<g>
</g>
<g>
</g>
<g>
</g>
<g>
</g>
<g>
</g>
</svg>
