<?xml version="1.0" encoding="iso-8859-1"?>
<!-- Generator: Adobe Illustrator 19.0.0, SVG Export Plug-In . SVG Version: 6.00 Build 0)  -->
<svg version="1.1" id="Layer_1" xmlns="http://www.w3.org/2000/svg" xmlns:xlink="http://www.w3.org/1999/xlink" x="0px" y="0px"
	 viewBox="0 0 503.467 503.467" style="enable-background:new 0 0 503.467 503.467;" xml:space="preserve">
<g transform="translate(1 1)">
	<path style="fill:#AAB1BA;" d="M395.8,463.64h-68.267h-17.067v34.133H447V463.64H395.8z M191,463.64v34.133H54.467V463.64h51.2
		h68.267H191z"/>
	<path style="fill:#FFD0A1;" d="M55.32,299.8c0-5.973,2.56-11.947,6.827-17.067c10.24-10.24,25.6-8.533,34.987,0.853l59.733,59.733
		c0,0,17.067,14.507,17.067,42.667v76.8h-68.267c0-25.6-8.533-34.133-8.533-34.133l-76.8-76.8c0,0-17.067-14.507-17.067-42.667v-128
		c0-14.507,11.093-25.6,25.6-25.6s25.6,11.093,25.6,25.6L55.32,299.8L55.32,299.8z M446.147,299.8L446.147,299.8L447,182.04
		c0-14.507,11.093-25.6,25.6-25.6c14.507,0,25.6,11.093,25.6,25.6v128c0,28.16-17.067,42.667-17.067,42.667l-76.8,76.8
		c0,0-8.533,8.533-8.533,34.133h-68.267v-76.8c0-28.16,17.067-42.667,17.067-42.667l59.733-59.733
		c10.24-10.24,25.6-11.093,34.987-0.853C444.44,287.853,446.147,293.827,446.147,299.8z"/>
	<circle style="fill:#80D6FA;" cx="250.733" cy="156.44" r="153.6"/>
	<path style="fill:#50DD8E;" d="M319,19.053c39.253,19.627,68.267,54.613,80.213,97.28c-19.627,8.533-51.2,11.947-58.027,8.533
		c-10.24-5.12-3.413-32.427-22.187-32.427c-17.067,0-23.893,31.573-34.133,36.693c-10.24,5.12-16.213-16.213-26.453-31.573
		c-10.24-16.213,0.853-34.987,26.453-43.52c10.24-3.413,0-31.573,3.413-46.933L319,19.053z M98.84,138.52
		c52.053,0,23.893,46.933,49.493,43.52c23.893-3.413,33.28-33.28,28.16-49.493c-5.12-16.213,36.693-21.333,36.693,5.12
		s-11.093,52.907-5.12,58.027c5.12,5.12,32.427,17.067,17.067,53.76c-11.947,27.307,5.12,46.933,25.6,59.733
		c-27.307,0-51.2-8.533-51.2-8.533C139.8,279.32,97.133,223,97.133,155.587C97.133,150.467,97.133,144.493,98.84,138.52
		L98.84,138.52z M336.067,182.04c11.947,9.387-3.413,17.92-8.533,34.133c-5.973,18.773-28.16,23.04-51.2,0
		c-8.533-8.533,0.853-29.867,8.533-25.6C301.933,199.107,308.76,160.707,336.067,182.04z"/>
</g>
<path style="fill:#51565F;" d="M448,503.04c-2.56,0-4.267-1.707-4.267-4.267v-29.867h-128v29.867c0,2.56-1.707,4.267-4.267,4.267
	s-4.267-1.707-4.267-4.267V464.64c0-2.56,1.707-4.267,4.267-4.267h12.8V387.84c0-29.867,17.92-45.227,18.773-46.08l59.733-59.733
	c5.973-5.973,12.8-8.533,20.48-9.387c7.68,0,15.36,2.56,20.48,8.533c5.973,5.973,8.533,12.8,8.533,20.48
	c0,7.68-3.413,14.507-9.387,20.48L400.213,364.8c-1.707,1.707-4.267,1.707-5.973,0s-1.707-4.267,0-5.973l42.667-42.667
	c4.267-4.267,6.827-9.387,6.827-14.507s-1.707-10.24-5.973-14.507s-9.387-5.973-14.507-5.973c-5.12,0-10.24,2.56-14.507,6.827
	l-59.733,59.733c0,0-16.213,14.507-16.213,39.253v72.533H448c2.56,0,4.267,1.707,4.267,4.267v34.133
	C452.267,501.333,450.56,503.04,448,503.04z M192,503.04c-2.56,0-4.267-1.707-4.267-4.267v-29.867h-128v29.867
	c0,2.56-1.707,4.267-4.267,4.267c-2.56,0-4.267-1.707-4.267-4.267V464.64c0-2.56,1.707-4.267,4.267-4.267h115.2V387.84
	c0-25.6-15.36-39.253-15.36-39.253l-59.733-59.733c-4.267-4.267-9.387-6.827-14.507-6.827c-5.12,0-10.24,1.707-14.507,5.973
	s-5.973,9.387-5.973,14.507s2.56,10.24,6.827,14.507l42.667,42.667c1.707,1.707,1.707,4.267,0,5.973
	c-1.707,1.707-4.267,1.707-5.973,0L61.44,322.987c-5.973-5.973-8.533-12.8-9.387-20.48c0-7.68,2.56-15.36,8.533-20.48
	c5.973-5.973,12.8-8.533,20.48-8.533s14.507,3.413,20.48,9.387l59.733,59.733c0.853,0.853,17.92,16.213,17.92,46.08v72.533h12.8
	c2.56,0,4.267,1.707,4.267,4.267v34.133C196.267,501.333,194.56,503.04,192,503.04z M405.333,434.773c-0.853,0-2.56,0-3.413-0.853
	c-1.707-1.707-1.707-4.267,0-5.973l76.8-76.8c0.853-0.853,16.213-13.653,16.213-39.253v-128c0-11.947-9.387-21.333-21.333-21.333
	c-11.947,0-21.333,9.387-21.333,21.333v67.413c0,2.56-1.707,4.267-4.267,4.267s-4.267-1.707-4.267-4.267V183.04
	c0-16.213,13.653-29.867,29.867-29.867c16.213,0,29.867,13.653,29.867,29.867v128c0,29.867-17.92,45.227-18.773,46.08l-76.8,76.8
	C407.893,434.773,406.187,434.773,405.333,434.773z M98.133,434.773c-0.853,0-2.56,0-3.413-0.853l-76.8-76.8
	C17.067,357.12,0,341.76,0,311.04v-128c0-16.213,13.653-29.867,29.867-29.867s29.867,13.653,29.867,29.867v67.413
	c0,2.56-1.707,4.267-4.267,4.267c-2.56,0-4.267-1.707-4.267-4.267V183.04c0-11.947-9.387-21.333-21.333-21.333
	S8.533,171.094,8.533,183.04v128c0,25.6,15.36,39.253,15.36,39.253l76.8,76.8c1.707,1.707,1.707,4.267,0,5.973
	C100.693,434.773,98.987,434.773,98.133,434.773z M251.733,315.307c-0.853,0-1.707,0-2.56-0.853
	c-35.84-23.04-34.987-47.787-27.307-64.853c11.947-28.16-2.56-39.253-11.947-46.08c-1.707-0.853-3.413-2.56-4.267-3.413
	c-4.267-4.267-2.56-12.8,0-26.453c1.707-10.24,4.267-22.187,4.267-34.133c0-5.973-2.56-10.24-7.68-12.8
	c-6.827-3.413-16.213-1.707-19.627,1.707c-1.707,1.707-1.707,3.413-0.853,4.267c3.413,11.093,1.707,25.6-5.973,37.547
	c-5.973,10.24-15.36,16.213-25.6,17.92c-15.36,2.56-17.067-9.387-18.773-17.92c-2.56-11.947-4.267-23.893-28.16-24.747
	c-0.853,4.267-0.853,8.533-0.853,13.653c0,63.147,40.107,119.467,99.84,140.8c2.56,0.853,3.413,3.413,2.56,5.12
	c-0.853,2.56-3.413,3.413-5.12,2.56c-63.147-22.187-104.96-81.92-104.96-148.48c0-6.827,0-11.947,0.853-17.92v-0.853
	c0-0.853,0.853-0.853,0.853-1.707c0.853,0,0.853-0.853,1.707-0.853h0.853c34.133,0,37.547,19.627,40.107,32.427
	c1.707,10.24,2.56,11.947,9.387,11.093c10.24-1.707,16.213-8.533,19.627-13.653c5.973-9.387,7.68-21.333,5.12-29.867
	c-1.707-5.12,0-9.387,3.413-12.8c6.827-5.973,19.627-7.68,29.013-3.413c8.533,3.413,12.8,11.093,12.8,20.48
	c0,12.8-2.56,25.6-4.267,35.84c-1.707,7.68-3.413,17.067-1.707,19.627c0.853,0.853,1.707,1.707,2.56,2.56
	c8.533,6.827,29.867,21.333,14.507,56.32c-8.533,20.48-1.707,38.4,23.04,53.76c81.92-0.853,148.48-67.413,148.48-149.333
	c0-2.56,0-5.12,0-7.68c0-2.56,1.707-4.267,4.267-4.267s4.267,1.707,4.267,4.267c0,2.56,0,5.973,0,8.533
	C409.6,244.48,338.773,315.307,251.733,315.307z M308.053,236.8c-11.093,0-22.187-5.973-33.28-17.067
	c-6.827-6.827-5.12-19.627,0-27.307c4.267-5.973,9.387-6.827,12.8-5.12c4.267,1.707,6.827,0,13.653-5.973
	c7.68-6.827,19.627-17.067,38.4-2.56c11.093,8.533,4.267,17.92,0,25.6c-2.56,4.267-5.12,8.533-6.827,13.653
	c-3.413,9.387-10.24,15.36-18.773,17.92C312.32,236.8,309.76,236.8,308.053,236.8z M285.867,191.573l-1.707,3.413
	c-0.853,0-2.56,1.707-4.267,5.973c-1.707,4.267-2.56,10.24,0.853,12.8c11.093,11.093,22.187,16.213,31.573,13.653
	c5.973-1.707,10.24-5.973,12.8-11.947c1.707-5.973,5.12-11.093,7.68-15.36c5.973-9.387,5.973-11.093,1.707-14.507
	c-12.8-10.24-19.627-5.12-27.307,2.56c-5.973,5.12-13.653,11.947-23.04,6.827l0,0L285.867,191.573z M282.453,135.253
	c-7.68,0-13.653-10.24-18.773-20.48c-2.56-5.12-5.12-10.24-7.68-14.507c-5.12-6.827-5.973-15.36-3.413-23.04
	c4.267-11.093,15.36-21.333,31.573-26.453c2.56-0.853,1.707-13.653,0.853-20.48c-0.853-6.827-1.707-13.653-0.853-18.773
	c-11.093-2.56-22.187-3.413-33.28-3.413c-63.147,0-119.467,40.107-140.8,99.84c-0.853,2.56-3.413,3.413-5.12,2.56
	c-2.56-0.853-3.413-3.413-2.56-5.12C124.587,42.24,184.32,0.427,250.88,0.427c12.8,0,26.453,1.707,38.4,5.12
	c2.56,0.853,3.413,2.56,3.413,5.12c-0.853,5.12,0,12.8,0,20.48c1.707,13.653,2.56,25.6-6.827,29.013
	c-13.653,4.267-23.893,12.8-26.453,21.333c-1.707,5.12-0.853,10.24,2.56,15.36c3.413,5.12,5.973,10.24,8.533,15.36
	c5.12,10.24,9.387,17.067,12.8,15.36c3.413-1.707,6.827-7.68,10.24-13.653C299.52,102.826,307.2,90.026,320,90.026
	c14.507,0,17.067,12.8,18.773,21.333c0.853,5.12,2.56,10.24,5.12,11.947c5.12,2.56,32.427,0,51.2-6.827
	c-11.947-39.253-39.253-72.533-76.8-91.307c-1.707-0.853-2.56-3.413-1.707-5.973c0.853-1.707,3.413-2.56,5.973-1.707
	c40.107,20.48,70.827,56.32,81.92,99.84v0.853c0,0.853,0,0.853,0,1.707s-0.853,0.853-0.853,1.707l-0.853,0.853
	c-19.627,8.533-52.907,12.8-61.44,8.533c-5.973-3.413-7.68-10.24-9.387-17.067c-2.56-10.24-3.413-14.507-10.24-14.507
	c-7.68,0-13.653,10.24-18.773,19.627c-4.267,7.68-7.68,14.507-13.653,17.067C285.867,135.253,284.16,135.253,282.453,135.253z"/>
<g>
</g>
<g>
</g>
<g>
</g>
<g>
</g>
<g>
</g>
<g>
</g>
<g>
</g>
<g>
</g>
<g>
</g>
<g>
</g>
<g>
</g>
<g>
</g>
<g>
</g>
<g>
</g>
<g>
</g>
</svg>
