<svg width="66" height="72" viewBox="0 0 66 57" fill="none" xmlns="http://www.w3.org/2000/svg">
<path d="M 21 9 a 1.5 1.5 90 0 0 0 -3 H 12 A 1.5 1.5 90 0 0 12 9 Z" stroke="url(#paint0_linear_2173_285)" stroke-width="1.5" stroke-linecap="round" stroke-linejoin="round"/>
<path d="M 31.5 13.26 v -6 A 7.2 7.2 90 0 0 24.315 0 H 8.685 A 7.2 7.2 90 0 0 1.5 7.185 V 40.815 A 7.2 7.2 90 0 0 8.685 48 H 24.315 A 7.2 7.2 90 0 0 31.5 40.815 v -0.075 A 15 15 90 0 0 31.5 13.26 Z M 24.315 45 H 8.685 A 4.185 4.185 90 0 1 4.5 40.815 V 7.185 A 4.185 4.185 90 0 1 8.685 3 H 24.315 A 4.185 4.185 90 0 1 28.5 7.185 V 12.3 A 15.3 15.3 90 0 0 25.5 12 a 14.88 14.88 90 0 0 -10.5 4.335 V 15 a 1.5 1.5 90 0 0 -3 0 V 39 a 1.5 1.5 90 0 0 3 0 v -1.335 A 14.88 14.88 90 0 0 25.5 42 a 15.285 15.285 90 0 0 2.895 -0.285 A 4.185 4.185 90 0 1 24.315 45 Z M 25.5 39 a 12 12 90 0 1 -10.5 -6.21 V 21.21 A 12 12 90 1 1 25.5 39 Z" stroke="#B8B8BA" stroke-width="1.5" stroke-linecap="round" stroke-linejoin="round"/>
<path d="M 25.5 22.5 h 3 a 1.5 1.5 90 0 0 0 -3 H 27 a 1.5 1.5 90 0 0 -3 0 v 0.27 A 4.5 4.5 90 0 0 25.5 28.5 a 1.5 1.5 90 0 1 0 3 H 22.5 a 1.5 1.5 90 0 0 0 3 h 1.5 a 1.5 1.5 90 0 0 3 0 v -0.27 A 4.5 4.5 90 0 0 25.5 25.5 a 1.5 1.5 90 0 1 0 -3 Z" stroke="url(#paint1_linear_2173_285)" stroke-width="1.5"/>
<defs>
<linearGradient id="paint0_linear_2173_285" x1="50.6294" y1="-9.75326" x2="22.1782" y2="39.0841" gradientUnits="userSpaceOnUse">
<stop stop-color="white"/>
<stop offset="1" stop-color="white" stop-opacity="0"/>
</linearGradient>
<linearGradient id="paint1_linear_2173_285" x1="33.1557" y1="24.5165" x2="3.55992" y2="58.4025" gradientUnits="userSpaceOnUse">
<stop stop-color="#45A29E"/>
<stop offset="1" stop-color="#45A29E" stop-opacity="0"/>
</linearGradient>
</defs>
</svg>
