<svg width="110" height="150" viewBox="0 0 100 87" fill="none" xmlns="http://www.w3.org/2000/svg">

<path d="M 87.9404 10.2592 H 4.189 C 1.876 10.2592 0 12.302 0 14.8209 V 71.8269 C 0 74.3458 1.876 76.3888 4.189 76.3888 H 84.1122 C 83.9906 76.2714 83.8515 76.1753 83.7378 76.0536 L 77.9414 69.7371 C 74.5994 71.7928 70.8142 72.8922 66.9349 72.8922 C 61.6463 72.8922 56.64 70.907 52.6137 67.2716 H 8.374 V 19.3785 H 83.7535 V 32.2333 C 87.3915 36.7054 89.4048 42.3836 89.4048 48.4162 C 89.4048 52.6407 88.3971 56.7606 86.5115 60.3959 L 92.1275 66.5159 V 14.8188 C 92.1294 12.302 90.2534 10.2592 87.9404 10.2592 Z M 72.2412 80.9462 H 19.8901 C 17.5771 80.9462 15.7032 82.9869 15.7032 85.5058 S 17.5771 90.0676 19.8901 90.0676 H 72.2373 C 74.5523 90.0676 76.4262 88.0247 76.4262 85.5058 S 74.5503 80.9462 72.2412 80.9462 Z" stroke="#B8B8BA" stroke-width="1.5" stroke-linecap="round" stroke-linejoin="round"/>
<path d="M 14.8064 46.8541 V 57.4293 C 14.8064 59.1816 16.2281 60.6032 17.9784 60.6032 C 19.7307 60.6032 21.1523 59.1816 21.1523 57.4293 V 46.8541 C 21.1523 45.1018 19.7307 43.6821 17.9784 43.6821 C 16.2261 43.6841 14.8064 45.1038 14.8064 46.8541 Z M 25.3796 42.6268 V 57.4312 C 25.3796 59.1835 26.8013 60.6052 28.5536 60.6052 C 30.3039 60.6052 31.7255 59.1835 31.7255 57.4312 V 42.6268 C 31.7255 40.8745 30.3039 39.4528 28.5536 39.4528 C 26.8013 39.4528 25.3796 40.8745 25.3796 42.6268 Z M 35.9548 38.3955 V 57.4293 C 35.9548 59.1816 37.3765 60.6032 39.1288 60.6032 C 40.8791 60.6032 42.3007 59.1816 42.3007 57.4293 V 38.3955 C 42.3007 36.6432 40.8791 35.2216 39.1288 35.2216 C 37.3765 35.2216 35.9548 36.6432 35.9548 38.3955 Z M 83.8946 62.0169 C 83.4728 61.5932 82.9066 61.4209 82.3561 61.4803 L 81.4671 60.5913 C 84.4371 57.2174 86.0765 52.9465 86.0765 48.4123 C 86.0765 43.4821 84.1579 38.845 80.6731 35.3582 C 77.1824 31.8635 72.5472 29.9469 67.6111 29.9469 C 62.6828 29.9469 58.0477 31.8655 54.5589 35.3582 C 51.0662 38.845 49.1456 43.4821 49.1456 48.4123 C 49.1456 53.3425 51.0701 57.9817 54.5589 61.4685 C 58.0477 64.9592 62.6828 66.8758 67.6111 66.8758 C 72.1512 66.8758 76.4201 65.2384 79.79 62.2644 L 80.683 63.1515 C 80.6236 63.7059 80.7939 64.2662 81.2196 64.6939 L 87.5813 71.0556 C 87.9516 71.4259 88.4347 71.6061 88.9218 71.6061 C 89.4029 71.6061 89.89 71.4239 90.2623 71.0556 C 90.9988 70.3151 90.9988 69.1172 90.2623 68.3806 L 83.8946 62.0169 Z M 77.9942 58.7856 C 75.2222 61.5595 71.5334 63.0921 67.6111 63.0921 C 63.6946 63.0921 60.0079 61.5635 57.2359 58.7895 C 54.4658 56.0195 52.9353 52.3308 52.9353 48.4104 C 52.9353 44.4919 54.4619 40.8052 57.2359 38.0332 C 60.0079 35.2592 63.6986 33.7306 67.6111 33.7306 C 71.5334 33.7306 75.2222 35.2572 77.9942 38.0332 C 80.7622 40.8052 82.2908 44.4919 82.2908 48.4104 C 82.2908 52.3308 80.7622 56.0136 77.9942 58.7856 Z" stroke="url(#paint1_linear_2173_285)" stroke-width="1.5"/>

<defs>
<linearGradient id="paint0_linear_2173_285" x1="50.6294" y1="-9.75326" x2="22.1782" y2="39.0841" gradientUnits="userSpaceOnUse">
<stop stop-color="white"/>
<stop offset="1" stop-color="white" stop-opacity="0"/>
</linearGradient>
<linearGradient id="paint1_linear_2173_285" x1="33.1557" y1="24.5165" x2="3.55992" y2="58.4025" gradientUnits="userSpaceOnUse">
<stop stop-color="#45A29E"/>
<stop offset="1" stop-color="#45A29E" stop-opacity="0"/>
</linearGradient>
</defs>
</svg>
