<svg width="66" height="72" viewBox="0 0 66 57" fill="none" xmlns="http://www.w3.org/2000/svg">
<!-- <circle cx="3.56588" cy="24.2739" r="2.66988" fill="#45A29E"/>
<circle cx="62.7021" cy="24.2739" r="2.66988" fill="#45A29E"/> -->
<path d="M 4.86 44.24 a 2.14 2.14 90 0 1 -0.5 0 a 2 2 90 0 1 -1.44 -2.42 L 12 5.28 a 2 2 90 0 1 2 -1.52 h 22 a 2 2 90 0 1 1.54 0.74 a 2 2 90 0 1 0.42 1.66 L 30.52 42.62 a 2 2 90 1 1 -4 -0.78 l 6.82 -34 H 15.54 L 6.8 42.72 A 2 2 90 0 1 4.86 44.24 Z M 6.68 36.94 a 2 2 90 0 1 0 -4 l 23.36 0 h 0 a 2 2 90 0 1 0 4 l -23.36 0 Z M 43.14 44.24 a 2 2 90 0 1 -2 -1.48 l -5.48 -20 a 2 2 90 0 1 1.42 -2.46 a 2 2 90 0 1 2.44 1.42 l 5.48 20 a 2 2 90 0 1 -1.4 2.44 A 1.68 1.68 90 0 1 43.14 44.24 Z M 21.26 44.24 a 2 2 90 0 1 -1.86 -1.3 L 16.66 35.64 a 2 2 90 1 1 3.74 -1.4 l 2.74 7.3 A 2 2 90 0 1 22 44.1 A 1.68 1.68 90 0 1 21.26 44.24 Z" stroke="#B8B8BA" stroke-width="1.5" stroke-linecap="round" stroke-linejoin="round"/>
<path d="M 27.64 18.7 H 16.7 a 2 2 90 0 1 0 -4 h 10.94 a 2 2 90 0 1 0 4 Z M 25.82 26 H 14.88 a 2 2 90 0 1 0 -4 h 10.94 a 2 2 90 0 1 0 4 Z" stroke="url(#paint1_linear_2173_285)" stroke-width="1.5"/>
<!-- <path d="M 25.5 22.5 h 3 a 1.5 1.5 90 0 0 0 -3 H 27 a 1.5 1.5 90 0 0 -3 0 v 0.27 A 4.5 4.5 90 0 0 25.5 28.5 a 1.5 1.5 90 0 1 0 3 H 22.5 a 1.5 1.5 90 0 0 0 3 h 1.5 a 1.5 1.5 90 0 0 3 0 v -0.27 A 4.5 4.5 90 0 0 25.5 25.5 a 1.5 1.5 90 0 1 0 -3 Z" stroke="url(#paint1_linear_2173_285)" stroke-width="1.5"/> -->
<!-- <path d="M30,5H27.41l.3-.29a1,1,0,1,0-1.42-1.42l-2,2a1,1,0,0,0,0,1.42l2,2a1,1,0,0,0,1.42,0,1,1,0,0,0,0-1.42L27.41,7H30a1,1,0,0,0,0-2Z" stroke="url(#paint1_linear_2173_285)" stroke-width="1.5"> -->
<!-- <path d= "M 21 8.84 V 4.84 A 4.8 4.8 0 0 0 16.21 0 H 5.79 A 4.8 4.8 0 0 0 1 4.79 V 27.21 A 4.8 4.8 0 0 0 5.79 32 H 16.21 A 4.8 4.8 0 0 0 21 27.21 V 27.16 A 10 10 0 0 0 21 8.84 Z M 16.21 30 H 5.79 A 2.79 2.79 0 0 1 3 27.21 V 4.79 A 2.79 2.79 0 0 1 5.79 2 H 16.21 A 2.79 2.79 0 0 1 19 4.79 V 8.2 A 10.2 10.2 0 0 0 17 8 A 9.92 9.92 0 0 0 10 10.89 V 10 A 1 1 0 0 0 8 10 V 26 A 1 1 0 0 0 10 26 V 25.11 A 9.92 9.92 0 0 0 17 28 A 10.19 10.19 0 0 0 18.93 27.81 A 2.79 2.79 0 0 1 16.21 30 Z M 17 26 A 8 8 0 0 1 10 21.86 V 14.14 A 8 8 0 1 1 17 26 Z M 17 15 H 19 A 1 1 0 0 0 19 13 H 18 A 1 1 0 0 0 16 13 V 13.18 A 3 3 0 0 0 17 19 A 1 1 0 0 1 17 21 H 15 A 1 1 0 0 0 15 23 H 16 A 1 1 0 0 0 18 23 V 22.82 A 3 3 0 0 0 17 17 A 1 1 0 0 1 17 15 Z M 30 5 H 27.41 L 27.71 4.71 A 1 1 0 1 0 26.29 3.29 L 24.29 5.29 A 1 1 0 0 0 24.29 6.71 L 26.29 8.71 A 1 1 0 0 0 27.71 8.71 A 1 1 0 0 0 27.71 7.29 L 27.41 7 H 30 A 1 1 0 0 0 30 5 Z"> -->

<!-- <circle cx="61.3827" cy="52.9675" r="2.83439" stroke="#45A29E" stroke-width="1.5"/>
<circle cx="3.58439" cy="52.9675" r="2.83439" stroke="#45A29E" stroke-width="1.5"/>
<rect x="29.873" y="50.1331" width="6.11683" height="6.11683" fill="#110E1B" stroke="#45A29E" stroke-width="1.5"/> -->
<defs>
<linearGradient id="paint0_linear_2173_285" x1="50.6294" y1="-9.75326" x2="22.1782" y2="39.0841" gradientUnits="userSpaceOnUse">
<stop stop-color="white"/>
<stop offset="1" stop-color="white" stop-opacity="0"/>
</linearGradient>
<linearGradient id="paint1_linear_2173_285" x1="33.1557" y1="24.5165" x2="3.55992" y2="58.4025" gradientUnits="userSpaceOnUse">
<stop stop-color="#45A29E"/>
<stop offset="1" stop-color="#45A29E" stop-opacity="0"/>
</linearGradient>
</defs>
</svg>
