<svg width="66" height="72" viewBox="0 0 66 57" fill="none" xmlns="http://www.w3.org/2000/svg">
<!-- <circle cx="3.56588" cy="24.2739" r="2.66988" fill="#45A29E"/>
<circle cx="62.7021" cy="24.2739" r="2.66988" fill="#45A29E"/> -->
<path d="M 26.5 40.5 L 26.5 58 C 26.5 58.796 26.816 59.559 27.379 60.121 C 27.941 60.684 28.704 61 29.5 61 C 35.251 61 51.79 61 57.541 61 C 58.337 61 59.1 60.684 59.663 60.121 C 60.225 59.559 60.541 58.796 60.541 58 C 60.541 53.916 60.541 45 60.541 45 C 60.541 44.448 60.093 44 59.541 44 C 58.989 44 58.541 44.448 58.541 45 C 58.541 45 58.541 53.916 58.541 58 C 58.541 58.265 58.436 58.52 58.248 58.707 C 58.061 58.895 57.806 59 57.541 59 C 51.79 59 35.251 59 29.5 59 C 29.235 59 28.98 58.895 28.793 58.707 C 28.605 58.52 28.5 58.265 28.5 58 L 28.5 40.5 C 28.5 39.948 28.052 39.5 27.5 39.5 C 26.948 39.5 26.5 39.948 26.5 40.5 Z M 33.541 35 L 5.5 35 C 4.948 35 4.5 34.552 4.5 34 C 4.5 34 4.5 22 4.5 22 C 4.5 21.448 4.052 21 3.5 21 C 2.948 21 2.5 21.448 2.5 22 L 2.5 34 C 2.5 35.657 3.843 37 5.5 37 L 30.5 37 L 30.5 56 C 30.5 56.552 30.948 57 31.5 57 L 55.541 57 C 56.094 57 56.541 56.552 56.541 56 L 56.541 31.959 C 56.541 31.406 56.094 30.959 55.541 30.959 L 38.541 30.959 C 37.989 30.959 37.541 31.407 37.541 31.959 C 37.541 32.511 37.989 32.959 38.541 32.959 L 54.541 32.959 C 54.541 32.959 54.541 55 54.541 55 C 54.541 55 32.5 55 32.5 55 L 32.5 37 L 33.541 37 C 35.198 37 36.541 35.657 36.541 34 L 36.541 28.959 L 57.541 28.959 C 57.806 28.959 58.061 29.064 58.248 29.252 C 58.436 29.439 58.541 29.694 58.541 29.959 C 58.541 29.959 58.541 40 58.541 40 C 58.541 40.552 58.989 41 59.541 41 C 60.093 41 60.541 40.552 60.541 40 L 60.541 29.959 C 60.541 29.163 60.225 28.4 59.663 27.837 C 59.1 27.275 58.337 26.959 57.541 26.959 L 36.541 26.959 L 36.541 5.959 C 36.541 4.302 35.198 2.959 33.541 2.959 L 5.5 2.959 C 3.843 2.959 2.5 4.302 2.5 5.959 C 2.5 9.837 2.5 18 2.5 18 C 2.5 18.552 2.948 19 3.5 19 C 4.052 19 4.5 18.552 4.5 18 L 4.5 5.959 C 4.5 5.406 4.948 4.959 5.5 4.959 L 33.541 4.959 C 34.094 4.959 34.541 5.406 34.541 5.959 L 34.541 34 C 34.541 34.552 34.094 35 33.541 35 Z M 32.541 7.959 C 32.541 7.406 32.094 6.959 31.541 6.959 L 7.5 6.959 C 6.948 6.959 6.5 7.406 6.5 7.959 L 6.5 32 C 6.5 32.552 6.948 33 7.5 33 L 31.541 33 C 32.094 33 32.541 32.552 32.541 32 L 32.541 7.959 Z M 30.541 8.959 L 30.541 31 C 30.541 31 8.5 31 8.5 31 C 8.5 31 8.5 8.959 8.5 8.959 C 8.5 8.959 30.541 8.959 30.541 8.959 Z" stroke="#B8B8BA" stroke-width="1.5" stroke-linecap="round" stroke-linejoin="round"/>
<path d="M 26.5 40.5 M 40.854 47.4 L 46.896 47.4 L 49.084 52.401 C 49.305 52.906 49.895 53.137 50.401 52.916 C 50.906 52.695 51.137 52.105 50.916 51.599 L 44.791 37.599 C 44.632 37.235 44.272 37 43.875 37 C 43.478 37 43.118 37.235 42.959 37.599 L 36.834 51.599 C 36.613 52.105 36.844 52.695 37.349 52.916 C 37.855 53.137 38.445 52.906 38.666 52.401 L 40.854 47.4 Z M 41.729 45.4 L 46.021 45.4 L 43.875 40.495 L 41.729 45.4 Z M 32.541 7.959 M 24.691 27.105 L 26.293 28.707 C 26.683 29.097 27.317 29.097 27.707 28.707 C 28.097 28.317 28.097 27.683 27.707 27.293 L 26.228 25.814 C 27.662 24.288 28.541 22.236 28.541 19.979 C 28.541 15.277 24.723 11.459 20.021 11.459 C 15.318 11.459 11.5 15.277 11.5 19.979 C 11.5 24.682 15.318 28.5 20.021 28.5 C 21.745 28.5 23.35 27.987 24.691 27.105 Z M 24.813 24.399 C 25.886 23.237 26.541 21.684 26.541 19.979 C 26.541 16.381 23.619 13.459 20.021 13.459 C 16.422 13.459 13.5 16.381 13.5 19.979 C 13.5 23.578 16.422 26.5 20.021 26.5 C 21.19 26.5 22.288 26.192 23.237 25.652 L 22.293 24.707 C 21.903 24.317 21.903 23.683 22.293 23.293 C 22.683 22.903 23.317 22.903 23.707 23.293 L 24.813 24.399 Z" stroke="url(#paint1_linear_2173_285)" stroke-width="1.5"/>
<!-- <path d="M 25.5 22.5 h 3 a 1.5 1.5 90 0 0 0 -3 H 27 a 1.5 1.5 90 0 0 -3 0 v 0.27 A 4.5 4.5 90 0 0 25.5 28.5 a 1.5 1.5 90 0 1 0 3 H 22.5 a 1.5 1.5 90 0 0 0 3 h 1.5 a 1.5 1.5 90 0 0 3 0 v -0.27 A 4.5 4.5 90 0 0 25.5 25.5 a 1.5 1.5 90 0 1 0 -3 Z" stroke="url(#paint1_linear_2173_285)" stroke-width="1.5"/> -->
<!-- <path d="M30,5H27.41l.3-.29a1,1,0,1,0-1.42-1.42l-2,2a1,1,0,0,0,0,1.42l2,2a1,1,0,0,0,1.42,0,1,1,0,0,0,0-1.42L27.41,7H30a1,1,0,0,0,0-2Z" stroke="url(#paint1_linear_2173_285)" stroke-width="1.5"> -->
<!-- <path d= "M 21 8.84 V 4.84 A 4.8 4.8 0 0 0 16.21 0 H 5.79 A 4.8 4.8 0 0 0 1 4.79 V 27.21 A 4.8 4.8 0 0 0 5.79 32 H 16.21 A 4.8 4.8 0 0 0 21 27.21 V 27.16 A 10 10 0 0 0 21 8.84 Z M 16.21 30 H 5.79 A 2.79 2.79 0 0 1 3 27.21 V 4.79 A 2.79 2.79 0 0 1 5.79 2 H 16.21 A 2.79 2.79 0 0 1 19 4.79 V 8.2 A 10.2 10.2 0 0 0 17 8 A 9.92 9.92 0 0 0 10 10.89 V 10 A 1 1 0 0 0 8 10 V 26 A 1 1 0 0 0 10 26 V 25.11 A 9.92 9.92 0 0 0 17 28 A 10.19 10.19 0 0 0 18.93 27.81 A 2.79 2.79 0 0 1 16.21 30 Z M 17 26 A 8 8 0 0 1 10 21.86 V 14.14 A 8 8 0 1 1 17 26 Z M 17 15 H 19 A 1 1 0 0 0 19 13 H 18 A 1 1 0 0 0 16 13 V 13.18 A 3 3 0 0 0 17 19 A 1 1 0 0 1 17 21 H 15 A 1 1 0 0 0 15 23 H 16 A 1 1 0 0 0 18 23 V 22.82 A 3 3 0 0 0 17 17 A 1 1 0 0 1 17 15 Z M 30 5 H 27.41 L 27.71 4.71 A 1 1 0 1 0 26.29 3.29 L 24.29 5.29 A 1 1 0 0 0 24.29 6.71 L 26.29 8.71 A 1 1 0 0 0 27.71 8.71 A 1 1 0 0 0 27.71 7.29 L 27.41 7 H 30 A 1 1 0 0 0 30 5 Z"> -->

<!-- <circle cx="61.3827" cy="52.9675" r="2.83439" stroke="#45A29E" stroke-width="1.5"/>
<circle cx="3.58439" cy="52.9675" r="2.83439" stroke="#45A29E" stroke-width="1.5"/>
<rect x="29.873" y="50.1331" width="6.11683" height="6.11683" fill="#110E1B" stroke="#45A29E" stroke-width="1.5"/> -->
<defs>
<linearGradient id="paint0_linear_2173_285" x1="50.6294" y1="-9.75326" x2="22.1782" y2="39.0841" gradientUnits="userSpaceOnUse">
<stop stop-color="white"/>
<stop offset="1" stop-color="white" stop-opacity="0"/>
</linearGradient>
<linearGradient id="paint1_linear_2173_285" x1="33.1557" y1="24.5165" x2="3.55992" y2="58.4025" gradientUnits="userSpaceOnUse">
<stop stop-color="#45A29E"/>
<stop offset="1" stop-color="#45A29E" stop-opacity="0"/>
</linearGradient>
</defs>
</svg>
