<svg width="76" height="90" viewBox="0 0 66 57" fill="none" xmlns="http://www.w3.org/2000/svg">

<path d="M 60 6 H 12 A 6 6 90 0 0 6 12 V 48 A 6 6 90 0 0 12 54 H 30 V 60 H 21 V 66 H 51 V 60 H 42 V 54 H 60 A 6 6 90 0 0 66 48 V 12 A 6 6 90 0 0 60 6 Z M 60 48 H 12 V 12 H 60 Z M 50.25 39 Z" stroke="#B8B8BA" stroke-width="1.5" stroke-linecap="round" stroke-linejoin="round"/>
<path d="M 40.4955 38.7975 Z L 24.5235 29.2785 L 40.5 19.5 L 40.5 25.5 L 33.3975 29.2785 L 40.5 33 Z" stroke="url(#paint1_linear_2173_285)" stroke-width="1.5"/>

<defs>
<linearGradient id="paint0_linear_2173_285" x1="50.6294" y1="-9.75326" x2="22.1782" y2="39.0841" gradientUnits="userSpaceOnUse">
<stop stop-color="white"/>
<stop offset="1" stop-color="white" stop-opacity="0"/>
</linearGradient>
<linearGradient id="paint1_linear_2173_285" x1="33.1557" y1="24.5165" x2="3.55992" y2="58.4025" gradientUnits="userSpaceOnUse">
<stop stop-color="#45A29E"/>
<stop offset="1" stop-color="#45A29E" stop-opacity="0"/>
</linearGradient>
</defs>
</svg>
